<svg width="45" height="45" viewBox="0 0 45 45" fill="none" xmlns="http://www.w3.org/2000/svg">
<g id="Group 41">
<circle id="Ellipse 7" cx="22.5" cy="22.5" r="22.5" fill="#DDD6D5" fill-opacity="0.3"/>
<g id="&#240;&#159;&#166;&#134; icon &#34;tools&#34;">
<path id="Vector" d="M20.3471 21.752L12.6386 29.4605C11.7871 30.3119 11.7871 31.6925 12.6386 32.5439C13.49 33.3954 14.8705 33.3954 15.722 32.5439L23.4305 24.8354" stroke="#FF5635" stroke-width="1.3" stroke-linecap="round" stroke-linejoin="round"/>
<path id="Vector_2" d="M28.1334 25.2324L32.3614 29.4604C33.2129 30.3118 33.2129 31.6923 32.3614 32.5437C31.5099 33.3953 30.1294 33.3953 29.278 32.5437L22.5098 25.7756" stroke="#FF5635" stroke-width="1.3" stroke-linecap="round" stroke-linejoin="round"/>
<path id="Vector_3" d="M16.7304 16.6251L14.4178 17.396L12.1053 13.5417L13.647 12L17.5013 14.3126L16.7304 16.6251ZM16.7304 16.6251L19.8158 19.7105" stroke="#FF5635" stroke-width="1.3" stroke-linecap="round" stroke-linejoin="round"/>
<path id="Vector_4" d="M20.3471 21.7518C19.4273 19.4047 19.6071 16.3251 21.5035 14.4287C23.3998 12.5324 26.8994 12.1162 28.8266 13.2725L25.5117 16.5873L25.2037 19.9788L28.5951 19.6707L31.9099 16.3559C33.0663 18.283 32.65 21.7827 30.7537 23.679C28.8573 25.5753 25.7777 25.7552 23.4306 24.8352" stroke="#FF5635" stroke-width="1.3" stroke-linecap="round" stroke-linejoin="round"/>
</g>
</g>
</svg>
