<svg width="45" height="45" viewBox="0 0 45 45" fill="none" xmlns="http://www.w3.org/2000/svg">
<g id="Group 44">
<circle id="Ellipse 6" cx="22.5" cy="22.5" r="22.5" fill="#DDD6D5" fill-opacity="0.3"/>
<g id="&#240;&#159;&#166;&#134; icon &#34;twitter verified badge&#34;">
<path id="Vector" d="M21.371 13.6396C22.1476 12.7868 23.4894 12.7868 24.2661 13.6396L25.2648 14.7362C25.6573 15.1672 26.2214 15.4009 26.8038 15.3737L28.2855 15.3045C29.4376 15.2506 30.3865 16.1994 30.3326 17.3516L30.2633 18.8333C30.2361 19.4156 30.4698 19.9797 30.9008 20.3722L31.9974 21.371C32.8503 22.1476 32.8503 23.4894 31.9974 24.2661L30.9008 25.2648C30.4698 25.6573 30.2361 26.2214 30.2633 26.8038L30.3326 28.2855C30.3865 29.4376 29.4376 30.3865 28.2855 30.3326L26.8038 30.2633C26.2214 30.2361 25.6573 30.4698 25.2648 30.9008L24.2661 31.9974C23.4894 32.8503 22.1476 32.8503 21.371 31.9974L20.3722 30.9008C19.9797 30.4698 19.4156 30.2361 18.8333 30.2633L17.3516 30.3326C16.1994 30.3865 15.2506 29.4376 15.3045 28.2855L15.3737 26.8038C15.4009 26.2214 15.1672 25.6573 14.7362 25.2648L13.6396 24.2661C12.7868 23.4894 12.7868 22.1476 13.6396 21.371L14.7362 20.3722C15.1672 19.9797 15.4009 19.4156 15.3737 18.8333L15.3045 17.3516C15.2506 16.1994 16.1994 15.2506 17.3516 15.3045L18.8333 15.3737C19.4156 15.4009 19.9797 15.1672 20.3722 14.7362L21.371 13.6396Z" stroke="#FF5635" stroke-width="1.3"/>
<path id="Vector_2" d="M19.8817 22.8187L21.8395 24.7766L25.7553 20.8608" stroke="#FF5635" stroke-width="1.3" stroke-linecap="round" stroke-linejoin="round"/>
</g>
</g>
</svg>
