<svg width="45" height="45" viewBox="0 0 45 45" fill="none" xmlns="http://www.w3.org/2000/svg">
<circle cx="22.5" cy="22.5" r="22.5" fill="#DDD6D5" fill-opacity="0.3"/>
<path d="M14 26V18C14 15.2386 16.2386 13 19 13H27C29.7614 13 32 15.2386 32 18V26C32 28.7614 29.7614 31 27 31H19C16.2386 31 14 28.7614 14 26Z" stroke="#FF5635" stroke-width="1.3"/>
<path d="M27.5 24.5C27.5 24.5 26 26.5 23 26.5C20 26.5 18.5 24.5 18.5 24.5" stroke="#FF5635" stroke-width="1.3" stroke-linecap="round" stroke-linejoin="round"/>
<path d="M19.5 20C19.2238 20 19 19.7761 19 19.5C19 19.2239 19.2238 19 19.5 19C19.7761 19 20 19.2239 20 19.5C20 19.7761 19.7761 20 19.5 20Z" fill="#FF5635" stroke="#FF5635" stroke-width="1.3" stroke-linecap="round" stroke-linejoin="round"/>
<path d="M26.5 20C26.2239 20 26 19.7761 26 19.5C26 19.2239 26.2239 19 26.5 19C26.7761 19 27 19.2239 27 19.5C27 19.7761 26.7761 20 26.5 20Z" fill="#FF5635" stroke="#FF5635" stroke-width="1.3" stroke-linecap="round" stroke-linejoin="round"/>
</svg>
