<svg width="45" height="45" viewBox="0 0 45 45" fill="none" xmlns="http://www.w3.org/2000/svg">
<g id="Group 43">
<circle id="Ellipse 6" cx="22.5" cy="22.5" r="22.5" fill="#DDD6D5" fill-opacity="0.3"/>
<g id="&#240;&#159;&#166;&#134; icon &#34;three stars&#34;">
<path id="Vector" d="M13.9126 24.6181L15.0611 22.1829C15.2086 21.8703 15.6345 21.8703 15.7819 22.1829L16.9304 24.6181L19.4988 25.0111C19.8284 25.0615 19.9597 25.4854 19.7211 25.7287L17.863 27.6229L18.3015 30.2989C18.3578 30.6426 18.0132 30.9045 17.7183 30.7423L15.4215 29.4781L13.1248 30.7423C12.8299 30.9045 12.4852 30.6426 12.5415 30.2989L12.9801 27.6229L11.1219 25.7287C10.8833 25.4854 11.0147 25.0615 11.3442 25.0111L13.9126 24.6181Z" stroke="#FF5635" stroke-width="1.3" stroke-linecap="round" stroke-linejoin="round"/>
<path id="Vector_2" d="M27.1772 24.6181L28.3258 22.1829C28.4732 21.8703 28.8992 21.8703 29.0465 22.1829L30.1951 24.6181L32.7635 25.0111C33.093 25.0615 33.2243 25.4854 32.9858 25.7287L31.1276 27.6229L31.5661 30.2989C31.6225 30.6426 31.2779 30.9045 30.9829 30.7423L28.6862 29.4781L26.3894 30.7423C26.0945 30.9045 25.7498 30.6426 25.8062 30.2989L26.2447 27.6229L24.3866 25.7287C24.148 25.4854 24.2793 25.0615 24.6088 25.0111L27.1772 24.6181Z" stroke="#FF5635" stroke-width="1.3" stroke-linecap="round" stroke-linejoin="round"/>
<path id="Vector_3" d="M20.5449 14.6697L21.6935 12.2345C21.8408 11.9218 22.2668 11.9218 22.4142 12.2345L23.5628 14.6697L26.1312 15.0626C26.4607 15.113 26.592 15.5369 26.3534 15.7801L24.4953 17.6743L24.9338 20.3504C24.9902 20.6941 24.6455 20.956 24.3506 20.7938L22.0538 19.5296L19.7571 20.7938C19.4622 20.956 19.1175 20.6941 19.1738 20.3504L19.6124 17.6743L17.7542 15.7801C17.5156 15.5369 17.647 15.113 17.9765 15.0626L20.5449 14.6697Z" stroke="#FF5635" stroke-width="1.3" stroke-linecap="round" stroke-linejoin="round"/>
</g>
</g>
</svg>
