<svg width="45" height="45" viewBox="0 0 45 45" fill="none" xmlns="http://www.w3.org/2000/svg">
<g id="Group 38">
<g id="Group 37">
<g id="Group 36">
<circle id="Ellipse 6" cx="22.5" cy="22.5" r="22.5" fill="#DDD6D5" fill-opacity="0.3"/>
</g>
<g id="&#240;&#159;&#166;&#134; icon &#34;group&#34;">
<path id="Vector" d="M11 31.9745V30.9171C11 26.8295 14.3137 23.5159 18.4013 23.5159C22.4889 23.5159 25.8025 26.8295 25.8025 30.9171V31.9745" stroke="#FF5635" stroke-width="1.3" stroke-linecap="round"/>
<path id="Vector_2" d="M23.6879 25.6306C23.6879 22.7109 26.0548 20.344 28.9745 20.344C31.8942 20.344 34.2611 22.7109 34.2611 25.6306V26.1593" stroke="#FF5635" stroke-width="1.3" stroke-linecap="round"/>
<path id="Vector_3" d="M18.4013 23.516C20.737 23.516 22.6306 21.6224 22.6306 19.2867C22.6306 16.9509 20.737 15.0574 18.4013 15.0574C16.0655 15.0574 14.172 16.9509 14.172 19.2867C14.172 21.6224 16.0655 23.516 18.4013 23.516Z" stroke="#FF5635" stroke-width="1.3" stroke-linecap="round" stroke-linejoin="round"/>
<path id="Vector_4" d="M28.9745 20.3439C30.7263 20.3439 32.1464 18.9238 32.1464 17.172C32.1464 15.4201 30.7263 14 28.9745 14C27.2226 14 25.8025 15.4201 25.8025 17.172C25.8025 18.9238 27.2226 20.3439 28.9745 20.3439Z" stroke="#FF5635" stroke-width="1.3" stroke-linecap="round" stroke-linejoin="round"/>
</g>
</g>
</g>
</svg>
