<svg width="30" height="30" viewBox="0 0 30 30" fill="none" xmlns="http://www.w3.org/2000/svg">
<g id="&#240;&#159;&#166;&#134; icon &#34;twitter verified badge&#34;">
<path id="Vector" d="M12.9359 1.91198C14.0434 0.696007 15.9566 0.696007 17.064 1.91198L18.4881 3.47566C19.0477 4.09021 19.8521 4.4234 20.6825 4.3846L22.7951 4.28587C24.4379 4.20908 25.7909 5.56199 25.7142 7.20487L25.6153 9.31751C25.5765 10.1478 25.9097 10.9522 26.5243 11.5119L28.0879 12.9359C29.304 14.0434 29.304 15.9566 28.0879 17.064L26.5243 18.4881C25.9097 19.0477 25.5765 19.8521 25.6153 20.6825L25.7142 22.7951C25.7909 24.4379 24.4379 25.7909 22.7951 25.7142L20.6825 25.6153C19.8521 25.5765 19.0477 25.9097 18.4881 26.5243L17.064 28.0879C15.9566 29.304 14.0434 29.304 12.9359 28.0879L11.5119 26.5243C10.9522 25.9097 10.1478 25.5765 9.31751 25.6153L7.20486 25.7142C5.56199 25.7909 4.20908 24.4379 4.28587 22.7951L4.3846 20.6825C4.4234 19.8521 4.09021 19.0477 3.47566 18.4881L1.91198 17.064C0.696007 15.9566 0.696007 14.0434 1.91198 12.9359L3.47566 11.5119C4.09021 10.9522 4.4234 10.1478 4.3846 9.31751L4.28587 7.20486C4.20908 5.56199 5.56199 4.20908 7.20487 4.28587L9.31751 4.3846C10.1478 4.4234 10.9522 4.09021 11.5119 3.47566L12.9359 1.91198Z" stroke="#FF5635" stroke-width="1.3"/>
<path id="Vector_2" d="M10.8124 15.0001L13.6041 17.7918L19.1875 12.2084" stroke="#FF5635" stroke-width="1.3" stroke-linecap="round" stroke-linejoin="round"/>
</g>
</svg>
