<svg width="78" height="78" viewBox="0 0 78 78" fill="none" xmlns="http://www.w3.org/2000/svg">
<g id="Frame" clip-path="url(#clip0_116_1655)">
<g id="Group">
<g id="Group_2">
<g id="Group_3">
<g id="Group_4">
<path id="Vector" fill-rule="evenodd" clip-rule="evenodd" d="M25.4021 58.5133L44.1894 35.6402L45.3795 41.297L36.3667 52.398L48.2674 53.0755L54.7571 58.7212L25.4021 58.5133Z" fill="#FF5635"/>
</g>
<g id="Group_5">
<path id="Vector_2" fill-rule="evenodd" clip-rule="evenodd" d="M54.8305 18.764L36.0432 41.6371L34.8531 35.9803L43.8659 24.8794L31.9652 24.2018L25.4755 18.5562L54.8305 18.764Z" fill="#FF5635"/>
</g>
</g>
<g id="Group_6">
<path id="Vector_3" fill-rule="evenodd" clip-rule="evenodd" d="M43.5245 7.73832L41.8675 7.72056L38.0561 3.22639L38.1035 7.70624L36.6949 7.70529L36.7188 -0.000488281L42.187 6.21761L42.116 1.43144L43.3824 0.0218814L43.5245 7.73832Z" fill="white"/>
</g>
<g id="Group_7">
<path id="Vector_4" fill-rule="evenodd" clip-rule="evenodd" d="M38.365 70.4126H43.2652L42.2827 71.4311C42.2827 71.4294 40.0931 71.3673 39.0042 71.3976C38.223 71.4196 37.9271 72.0897 37.9981 72.7967C38.0691 73.3971 38.5781 74.0092 39.1817 74C40.3417 73.9825 41.8921 73.538 42.9219 74.3694C43.7978 75.0806 43.6202 76.5995 42.9219 77.3688C42.6378 77.6777 42.0815 77.886 41.6909 77.9961H36.7671L37.8559 76.9628C38.8975 76.9806 39.9391 76.9983 40.9807 76.9924C41.3003 76.9912 41.6792 76.9522 41.9514 76.7214C42.4604 76.2751 42.3538 75.3022 41.6673 75.0793C41.182 74.9223 40.815 75.0725 40.3297 75.0709C39.2526 75.0674 38.9213 75.1777 37.9389 74.7295C36.1517 73.9208 36.341 71.1217 38.365 70.4126Z" fill="white"/>
</g>
<g id="Group_8">
<path id="Vector_5" fill-rule="evenodd" clip-rule="evenodd" d="M4.31115 39.521L0.0147777 42.5069L-0.0090332 34.769L1.39951 34.7681L1.38772 39.9167L4.31115 37.8831L7.2466 39.9167L7.22279 34.7681L8.63133 34.769L8.61954 42.5069L4.31115 39.521Z" fill="white"/>
</g>
<g id="Group_9">
<path id="Vector_6" fill-rule="evenodd" clip-rule="evenodd" d="M32.6908 74.4188C18.5348 71.4929 7.3616 60.361 4.36707 46.2252H5.88195C8.81731 59.5432 19.3514 70.0264 32.6908 72.9061V74.4188ZM75.8572 46.2252C72.8745 60.361 61.6893 71.4929 47.5333 74.4188V72.9061C60.8726 70.0264 71.4067 59.5432 74.3421 46.2252H75.8572ZM47.5333 2.85645C61.6893 5.78233 72.8745 16.9142 75.8572 31.0501H74.3421C71.4067 17.7321 60.8726 7.24883 47.5333 4.3691V2.85645ZM4.36707 31.0501C7.3616 16.9142 18.5348 5.78233 32.6908 2.85645V4.3691C19.3514 7.24883 8.81731 17.7321 5.88195 31.0501H4.36707Z" fill="white"/>
</g>
<g id="Group_10">
<g id="Group_11">
<path id="Vector_7" fill-rule="evenodd" clip-rule="evenodd" d="M72.3958 36.046L73.5945 34.7686L77.8406 34.7842L76.8729 36.0845L72.3958 36.046Z" fill="white"/>
</g>
<g id="Group_12">
<path id="Vector_8" fill-rule="evenodd" clip-rule="evenodd" d="M72.3975 42.4687V42.4686V34.7686H73.6592L73.6562 37.9699L77.8999 37.9854L76.9274 39.2859L73.8962 39.2597L73.8746 41.1923L77.8445 41.2069L76.872 42.5074L73.3023 42.4766L72.3975 42.4724V42.4687Z" fill="white"/>
</g>
</g>
</g>
</g>
</g>
<defs>
<clipPath id="clip0_116_1655">
<rect width="78" height="78" fill="white"/>
</clipPath>
</defs>
</svg>
