<svg width="134" height="60" viewBox="0 0 134 60" fill="none" xmlns="http://www.w3.org/2000/svg">
<g id="Group">
<g id="Group_2">
<path id="Vector" fill-rule="evenodd" clip-rule="evenodd" d="M87.4719 28.3017L87.3477 18.7604L91.1468 14.5743V23.9392L87.4719 28.3017Z" fill="#2D2D2B"/>
</g>
<g id="Group_3">
<path id="Vector_2" fill-rule="evenodd" clip-rule="evenodd" d="M19.6619 45.0114L34.2037 27.4158L35.1248 31.7674L28.1487 40.307L37.3601 40.8282L42.3833 45.1713L19.6619 45.0114Z" fill="#FF5635"/>
</g>
<g id="Group_4">
<path id="Vector_3" fill-rule="evenodd" clip-rule="evenodd" d="M42.4485 14.4341L27.9068 32.0296L26.9857 27.678L33.9617 19.1384L24.7504 18.6172L19.7272 14.2742L42.4485 14.4341Z" fill="#FF5635"/>
</g>
<g id="Group_5">
<path id="Vector_4" fill-rule="evenodd" clip-rule="evenodd" d="M47.0885 18.2046L50.6569 14.4252L63.2974 14.4713L60.4167 18.3187L47.0885 18.2046Z" fill="#2D2D2B"/>
</g>
<g id="Group_6">
<path id="Vector_5" fill-rule="evenodd" clip-rule="evenodd" d="M47.0921 37.2078V37.2076L47.2571 27.6765L50.8391 23.897L63.4727 23.943L60.5776 27.7907L51.5536 27.7133L51.4896 33.4313L63.3077 33.4745L60.4128 37.3221L49.7856 37.231L47.0921 37.2188V37.2078Z" fill="#2D2D2B"/>
</g>
<g id="Group_7">
<path id="Vector_6" fill-rule="evenodd" clip-rule="evenodd" d="M75.3672 37.3295L71.1552 37.3266L71.2379 14.4417L91.5954 37.4247L86.6402 37.3718L75.2019 24.0248L75.3672 37.3295Z" fill="#2D2D2B"/>
</g>
<g id="Group_8">
<path id="Vector_7" fill-rule="evenodd" clip-rule="evenodd" d="M99.3868 18.9557L103.43 14.4084L103.234 32.1184L99.6613 37.3758L99.3868 18.9557Z" fill="#2D2D2B"/>
</g>
<g id="Group_9">
<path id="Vector_8" fill-rule="evenodd" clip-rule="evenodd" d="M111.31 17.8178L113.86 14.444L133.736 14.5589L131.273 17.8637L124.589 17.7029L124.458 37.1235L120.148 37.0619L120.28 17.8082L111.31 17.8178Z" fill="#2D2D2B"/>
</g>
<g id="Group_10">
<path id="Vector_9" d="M50.9347 44.1644C50.6687 44.3022 50.391 44.4019 50.102 44.4634C49.8127 44.5246 49.518 44.5551 49.2172 44.5551C48.8972 44.5551 48.6025 44.5054 48.3324 44.4057C48.0626 44.3061 47.8296 44.1634 47.633 43.9775C47.4364 43.7919 47.2829 43.5666 47.1733 43.3025C47.0633 43.0381 47.0084 42.7429 47.0084 42.4173C47.0084 42.0916 47.0633 41.7967 47.1733 41.5323C47.2829 41.2679 47.4364 41.0429 47.633 40.857C47.8296 40.6714 48.0626 40.5285 48.3324 40.4291C48.6025 40.3294 48.8972 40.2794 49.2172 40.2794C49.5448 40.2794 49.8466 40.3188 50.1221 40.3974C50.3977 40.4759 50.6397 40.6108 50.8478 40.8025L50.212 41.4922C50.0886 41.3656 49.9495 41.2698 49.7955 41.2047C49.6414 41.1397 49.4486 41.107 49.2172 41.107C49.0244 41.107 48.8499 41.1397 48.6939 41.2047C48.5379 41.2698 48.404 41.3608 48.2921 41.4778C48.1802 41.5945 48.0946 41.7336 48.0348 41.8945C47.975 42.0554 47.945 42.2298 47.945 42.4173C47.945 42.6089 47.975 42.7842 48.0348 42.9432C48.0946 43.1022 48.1802 43.24 48.2921 43.357C48.404 43.474 48.5379 43.5647 48.6939 43.6301C48.8499 43.6951 49.0244 43.7275 49.2172 43.7275C49.4138 43.7275 49.5835 43.7057 49.7261 43.6615C49.8686 43.6176 49.9824 43.5724 50.0672 43.5266V42.8657H49.3329V42.0381H50.9347V44.1644Z" fill="#2D2D2B"/>
</g>
<g id="Group_11">
<path id="Vector_10" d="M54.4507 43.9689C54.3101 44.1452 54.1375 44.2814 53.9233 44.3769C53.7123 44.4728 53.4918 44.5208 53.2648 44.5208C53.0506 44.5208 52.8461 44.4862 52.6543 44.4173C52.4641 44.3484 52.2985 44.2497 52.1578 44.1215C52.0169 43.9929 51.9063 43.8388 51.8251 43.6586C51.7442 43.4785 51.7039 43.2776 51.7039 43.0554C51.7039 42.833 51.7442 42.632 51.8251 42.4519C51.9063 42.2718 52.0169 42.1176 52.1578 41.9891C52.2985 41.8609 52.4641 41.7622 52.6543 41.6932C52.8461 41.6243 53.0506 41.5897 53.2648 41.5897C53.4662 41.5897 53.6484 41.6243 53.8114 41.6932C53.9745 41.7622 54.1151 41.8609 54.227 41.9891C54.3421 42.1176 54.4284 42.2718 54.4923 42.4519C54.553 42.632 54.585 42.833 54.585 43.0554V43.3253H52.5712C52.6063 43.4901 52.6798 43.6215 52.7949 43.7192C52.9132 43.8167 53.0538 43.8657 53.2232 43.8657C53.3671 43.8657 53.4886 43.834 53.5877 43.7708C53.6836 43.7077 53.7699 43.6263 53.8434 43.5266L54.4507 43.9689ZM53.7155 42.7391C53.7187 42.5936 53.6708 42.4692 53.5717 42.3657C53.4726 42.2622 53.3415 42.2106 53.1849 42.2106C53.089 42.2106 53.0027 42.2259 52.9292 42.2564C52.8556 42.2872 52.7949 42.3263 52.7406 42.3743C52.6894 42.4221 52.6479 42.4779 52.6191 42.541C52.5903 42.6042 52.5743 42.6702 52.5712 42.7391H53.7155Z" fill="#2D2D2B"/>
</g>
<g id="Group_12">
<path id="Vector_11" d="M55.1796 43.0554C55.1796 42.833 55.2211 42.632 55.301 42.4519C55.381 42.2718 55.4928 42.1176 55.6335 41.9891C55.7741 41.8609 55.9404 41.7622 56.129 41.6932C56.3208 41.6243 56.5253 41.5897 56.7395 41.5897C56.9569 41.5897 57.1583 41.6243 57.3501 41.6932C57.5418 41.7622 57.7081 41.8609 57.8487 41.9891C57.9894 42.1176 58.098 42.2718 58.1812 42.4519C58.2611 42.632 58.3026 42.833 58.3026 43.0554C58.3026 43.2776 58.2611 43.4785 58.1812 43.6586C58.098 43.8388 57.9894 43.9929 57.8487 44.1215C57.7081 44.2497 57.5418 44.3484 57.3501 44.4173C57.1583 44.4862 56.9569 44.5208 56.7395 44.5208C56.5253 44.5208 56.3208 44.4862 56.129 44.4173C55.9404 44.3484 55.7741 44.2497 55.6335 44.1215C55.4928 43.9929 55.381 43.8388 55.301 43.6586C55.2211 43.4785 55.1796 43.2776 55.1796 43.0554ZM56.0458 43.0554C56.0458 43.266 56.1066 43.4365 56.2281 43.5667C56.3495 43.6971 56.5221 43.7622 56.7395 43.7622C56.9601 43.7622 57.1295 43.6971 57.251 43.5667C57.3724 43.4365 57.4332 43.266 57.4332 43.0554C57.4332 42.8445 57.3724 42.674 57.251 42.5439C57.1295 42.4134 56.9601 42.3484 56.7395 42.3484C56.5221 42.3484 56.3495 42.4134 56.2281 42.5439C56.1066 42.674 56.0458 42.8445 56.0458 43.0554Z" fill="#2D2D2B"/>
</g>
<g id="Group_13">
<path id="Vector_12" d="M61.9338 44.452H61.1347V44.084H61.1219C61.0899 44.134 61.042 44.1847 60.9877 44.2363C60.9301 44.2882 60.8662 44.335 60.7895 44.377C60.7159 44.4193 60.6328 44.4539 60.5433 44.4805C60.4506 44.5074 60.3579 44.5209 60.262 44.5209C60.0542 44.5209 59.8656 44.4853 59.6962 44.4145C59.5268 44.3436 59.3798 44.2439 59.2583 44.1157C59.1368 43.9872 59.0441 43.835 58.977 43.6587C58.9131 43.4824 58.8811 43.2891 58.8811 43.0782C58.8811 42.883 58.9099 42.6962 58.9706 42.518C59.0282 42.3398 59.1145 42.1817 59.2231 42.0439C59.335 41.9061 59.4661 41.7959 59.6259 41.7135C59.7825 41.6311 59.9615 41.5898 60.1629 41.5898C60.3451 41.5898 60.5146 41.6176 60.668 41.6731C60.8246 41.7289 60.9525 41.8237 61.0548 41.9577H61.0644V40.1071H61.9338V44.452ZM61.1347 43.0555C61.1347 42.8446 61.074 42.6741 60.9525 42.5439C60.831 42.4135 60.6616 42.3484 60.441 42.3484C60.2205 42.3484 60.0511 42.4135 59.9296 42.5439C59.8081 42.6741 59.7474 42.8446 59.7474 43.0555C59.7474 43.2661 59.8081 43.4366 59.9296 43.5667C60.0511 43.6971 60.2205 43.7622 60.441 43.7622C60.6616 43.7622 60.831 43.6971 60.9525 43.5667C61.074 43.4366 61.1347 43.2661 61.1347 43.0555Z" fill="#2D2D2B"/>
</g>
<g id="Group_14">
<path id="Vector_13" d="M65.4598 43.9689C65.3223 44.1452 65.1465 44.2814 64.9355 44.3769C64.7214 44.4728 64.5008 44.5208 64.2739 44.5208C64.0597 44.5208 63.8551 44.4862 63.6633 44.4173C63.4747 44.3484 63.3085 44.2497 63.1678 44.1215C63.0272 43.9929 62.9153 43.8388 62.8354 43.6586C62.7523 43.4785 62.7139 43.2776 62.7139 43.0554C62.7139 42.833 62.7523 42.632 62.8354 42.4519C62.9153 42.2718 63.0272 42.1176 63.1678 41.9891C63.3085 41.8609 63.4747 41.7622 63.6633 41.6932C63.8551 41.6243 64.0597 41.5897 64.2739 41.5897C64.4752 41.5897 64.6574 41.6243 64.8205 41.6932C64.9835 41.7622 65.1241 41.8609 65.236 41.9891C65.3511 42.1176 65.4406 42.2718 65.5013 42.4519C65.5621 42.632 65.594 42.833 65.594 43.0554V43.3253H63.5802C63.6154 43.4901 63.6921 43.6215 63.8071 43.7192C63.9222 43.8167 64.0661 43.8657 64.2355 43.8657C64.3762 43.8657 64.4976 43.834 64.5967 43.7708C64.6926 43.7077 64.7789 43.6263 64.8524 43.5266L65.4598 43.9689ZM64.7245 42.7391C64.7309 42.5936 64.6798 42.4692 64.5807 42.3657C64.4816 42.2622 64.3506 42.2106 64.1939 42.2106C64.098 42.2106 64.0117 42.2259 63.9382 42.2564C63.8647 42.2872 63.804 42.3263 63.7528 42.3743C63.6985 42.4221 63.6601 42.4779 63.6313 42.541C63.6026 42.6042 63.5834 42.6702 63.5802 42.7391H64.7245Z" fill="#2D2D2B"/>
</g>
<g id="Group_15">
<path id="Vector_14" d="M66.1821 43.5897L67.6397 42.3484H66.2173V41.6589H68.6467V42.4862L67.1187 43.7622H68.6818V44.4519H66.1821V43.5897Z" fill="#2D2D2B"/>
</g>
<g id="Group_16">
<path id="Vector_15" d="M70.2354 44.6586C70.2354 44.8388 70.2195 45.0006 70.1843 45.1442C70.1491 45.2878 70.0916 45.4106 70.0117 45.5122C69.9286 45.6138 69.8231 45.692 69.6888 45.7477C69.5577 45.8032 69.3915 45.8311 69.1965 45.8311C69.1294 45.8311 69.0623 45.8282 68.9919 45.8224C68.9248 45.8166 68.8577 45.8041 68.7906 45.7849L68.8353 45.0208C68.9056 45.0551 68.9824 45.0724 69.0623 45.0724C69.1358 45.0724 69.1933 45.0532 69.2349 45.015C69.2796 44.9766 69.3084 44.9288 69.3276 44.8714C69.3468 44.8137 69.3596 44.7525 69.3627 44.6875C69.3659 44.6224 69.3691 44.5628 69.3691 44.5093V41.6589H70.2354V44.6586ZM69.2988 40.7794C69.2988 40.6416 69.35 40.5237 69.4459 40.4262C69.545 40.3285 69.6632 40.2794 69.8039 40.2794C69.9413 40.2794 70.0596 40.3285 70.1587 40.4262C70.2578 40.5237 70.3058 40.6416 70.3058 40.7794C70.3058 40.9176 70.2578 41.0352 70.1587 41.133C70.0596 41.2307 69.9413 41.2794 69.8039 41.2794C69.6632 41.2794 69.545 41.2307 69.4459 41.133C69.35 41.0352 69.2988 40.9176 69.2988 40.7794Z" fill="#2D2D2B"/>
</g>
<g id="Group_17">
<path id="Vector_16" d="M72.7989 44.1013H72.7862C72.6903 44.2506 72.5624 44.358 72.4026 44.4231C72.2427 44.4881 72.0733 44.5208 71.8975 44.5208C71.7633 44.5208 71.6386 44.5026 71.5171 44.466C71.3956 44.4298 71.287 44.3753 71.1975 44.3022C71.1048 44.2295 71.0313 44.1394 70.9769 44.0324C70.9226 43.925 70.8938 43.8003 70.8938 43.6586C70.8938 43.4977 70.9258 43.3618 70.9833 43.2506C71.044 43.1397 71.1272 43.0477 71.2263 42.975C71.3317 42.9019 71.4468 42.8455 71.5779 42.8054C71.7089 42.765 71.8464 42.7352 71.987 42.7163C72.1277 42.6971 72.2651 42.6856 72.4058 42.6817C72.5496 42.6779 72.6775 42.6759 72.7989 42.6759C72.7989 42.5227 72.7414 42.4013 72.6327 42.3112C72.524 42.2211 72.393 42.1759 72.2427 42.1759C72.0989 42.1759 71.971 42.2058 71.8528 42.265C71.7345 42.3247 71.629 42.4058 71.5363 42.5093L71.076 42.0381C71.2358 41.8888 71.4244 41.7766 71.6418 41.7019C71.856 41.6272 72.0797 41.5897 72.3131 41.5897C72.5656 41.5897 72.7766 41.6215 72.9396 41.6846C73.1026 41.7481 73.2337 41.8407 73.3328 41.9634C73.4319 42.0859 73.499 42.2365 73.5374 42.4144C73.5757 42.5926 73.5949 42.7987 73.5949 43.0324V44.4519H72.7989V44.1013ZM72.5848 43.2279C72.5177 43.2279 72.4378 43.2304 72.3387 43.2362C72.2396 43.242 72.1469 43.2583 72.0542 43.2852C71.9647 43.3118 71.8879 43.3522 71.824 43.4058C71.7601 43.4596 71.7281 43.5343 71.7281 43.6301C71.7281 43.7333 71.7729 43.8099 71.8624 43.8599C71.9487 43.9096 72.0414 43.9346 72.1373 43.9346C72.2236 43.9346 72.3067 43.9231 72.3834 43.9C72.4633 43.8772 72.5336 43.8445 72.5944 43.8026C72.6583 43.7602 72.7063 43.7067 72.7414 43.6413C72.7798 43.5763 72.7989 43.4997 72.7989 43.4115V43.2279H72.5848Z" fill="#2D2D2B"/>
</g>
<g id="Group_18">
<path id="Vector_17" d="M79.3328 43.4919L80.2438 44.4519H79.1282L78.7894 44.0666C78.62 44.2391 78.4378 44.3637 78.2428 44.4403C78.0478 44.517 77.8272 44.5551 77.5843 44.5551C77.4021 44.5551 77.2199 44.5304 77.0473 44.4804C76.8747 44.4307 76.718 44.3551 76.5837 44.2535C76.4463 44.1519 76.3376 44.0246 76.2545 43.8714C76.1746 43.7182 76.1331 43.54 76.1331 43.3368C76.1331 43.2067 76.1554 43.083 76.2002 42.9663C76.2449 42.8493 76.3056 42.7429 76.3856 42.6471C76.4655 42.5516 76.5582 42.4682 76.6605 42.3974C76.766 42.3262 76.8778 42.2698 77.0025 42.2278C76.9354 42.1551 76.8747 42.0858 76.8203 42.0208C76.7628 41.9557 76.7148 41.8868 76.6733 41.814C76.6349 41.7413 76.6029 41.6647 76.5837 41.5842C76.5614 41.5035 76.5518 41.4134 76.5518 41.314C76.5518 41.1301 76.587 40.973 76.6573 40.8429C76.7276 40.7124 76.8235 40.6051 76.945 40.5208C77.0632 40.4365 77.2007 40.3753 77.3541 40.3371C77.5076 40.2986 77.6674 40.2794 77.8272 40.2794C77.987 40.2794 78.1373 40.2996 78.2811 40.34C78.4218 40.3801 78.5497 40.4413 78.6584 40.5237C78.767 40.606 78.8565 40.7095 78.9205 40.8342C78.9876 40.9586 79.0196 41.107 79.0196 41.2794C79.0196 41.4022 79.0004 41.515 78.9588 41.6185C78.9173 41.7221 78.8629 41.8189 78.7958 41.9086C78.7255 41.9987 78.6455 42.0791 78.5528 42.1503C78.4633 42.2211 78.3674 42.2833 78.2619 42.3368L78.7894 42.8942L79.189 42.3541H80.1927L79.3328 43.4919ZM77.8177 40.9692C77.7058 40.9692 77.6099 41.0035 77.5332 41.0727C77.4564 41.1416 77.4181 41.2336 77.4181 41.3483C77.4181 41.3983 77.4309 41.4471 77.4532 41.4951C77.4756 41.5429 77.5044 41.5887 77.5364 41.633C77.5683 41.6769 77.6067 41.7182 77.645 41.7564C77.6866 41.7948 77.7249 41.8291 77.7601 41.8599C77.8049 41.833 77.856 41.8015 77.9103 41.765C77.9647 41.7288 78.0127 41.6884 78.0606 41.6445C78.1054 41.6003 78.1437 41.5525 78.1757 41.5006C78.2076 41.449 78.2204 41.3945 78.2204 41.3371C78.2204 41.2182 78.182 41.1272 78.1021 41.064C78.0254 41.0009 77.9295 40.9692 77.8177 40.9692ZM77.5396 42.7163C77.482 42.7506 77.4245 42.7862 77.3701 42.8224C77.3126 42.8589 77.2615 42.8993 77.2199 42.9432C77.1751 42.9871 77.1368 43.0381 77.1112 43.0955C77.0856 43.1528 77.0696 43.2201 77.0696 43.2967C77.0696 43.3734 77.0856 43.4423 77.1176 43.5035C77.1496 43.5647 77.1879 43.6166 77.2391 43.6586C77.2902 43.7009 77.3478 43.7343 77.4149 43.7593C77.482 43.7843 77.5523 43.7968 77.6195 43.7968C77.7569 43.7968 77.872 43.7679 77.9711 43.7105C78.0702 43.6528 78.1661 43.582 78.2619 43.4977L77.5396 42.7163Z" fill="#2D2D2B"/>
</g>
<g id="Group_19">
<path id="Vector_18" d="M82.7563 40.3829H83.9806L85.7228 43.2105H85.7324V40.3829H86.6338V44.4519H85.4542L83.6674 41.5554H83.6578V44.4519H82.7563V40.3829Z" fill="#2D2D2B"/>
</g>
<g id="Group_20">
<path id="Vector_19" d="M87.5415 41.6589H88.411V44.4519H87.5415V41.6589ZM87.4744 40.7794C87.4744 40.6416 87.5224 40.5237 87.6215 40.4262C87.7206 40.3285 87.8388 40.2794 87.9763 40.2794C88.1169 40.2794 88.2352 40.3285 88.3311 40.4262C88.4302 40.5237 88.4782 40.6416 88.4782 40.7794C88.4782 40.9176 88.4302 41.0352 88.3311 41.133C88.2352 41.2307 88.1169 41.2794 87.9763 41.2794C87.8388 41.2794 87.7206 41.2307 87.6215 41.133C87.5224 41.0352 87.4744 40.9176 87.4744 40.7794Z" fill="#2D2D2B"/>
</g>
<g id="Group_21">
<path id="Vector_20" d="M91.8699 43.9689C91.7292 44.1452 91.5534 44.2814 91.3425 44.3769C91.1315 44.4728 90.9109 44.5208 90.684 44.5208C90.4666 44.5208 90.2652 44.4862 90.0734 44.4173C89.8816 44.3484 89.7154 44.2497 89.5747 44.1215C89.4341 43.9929 89.3254 43.8388 89.2423 43.6586C89.1624 43.4785 89.1208 43.2776 89.1208 43.0554C89.1208 42.833 89.1624 42.632 89.2423 42.4519C89.3254 42.2718 89.4341 42.1176 89.5747 41.9891C89.7154 41.8609 89.8816 41.7622 90.0734 41.6932C90.2652 41.6243 90.4666 41.5897 90.684 41.5897C90.8822 41.5897 91.0644 41.6243 91.2306 41.6932C91.3936 41.7622 91.5311 41.8609 91.6462 41.9891C91.758 42.1176 91.8475 42.2718 91.9083 42.4519C91.9722 42.632 92.001 42.833 92.001 43.0554V43.3253H89.9903C90.0255 43.4901 90.099 43.6215 90.2141 43.7192C90.3291 43.8167 90.473 43.8657 90.6424 43.8657C90.7863 43.8657 90.9045 43.834 91.0036 43.7708C91.1027 43.7077 91.189 43.6263 91.2625 43.5266L91.8699 43.9689ZM91.1347 42.7391C91.1379 42.5936 91.0899 42.4692 90.9908 42.3657C90.8885 42.2622 90.7607 42.2106 90.6009 42.2106C90.505 42.2106 90.4218 42.2259 90.3483 42.2564C90.2748 42.2872 90.2109 42.3263 90.1597 42.3743C90.1086 42.4221 90.067 42.4779 90.0383 42.541C90.0095 42.6042 89.9935 42.6702 89.9903 42.7391H91.1347Z" fill="#2D2D2B"/>
</g>
<g id="Group_22">
<path id="Vector_21" d="M92.7009 41.659H93.5672V42.107H93.58C93.6727 41.9346 93.7814 41.8054 93.9092 41.7192C94.0371 41.633 94.1969 41.5897 94.3887 41.5897C94.4399 41.5897 94.491 41.5916 94.539 41.5955C94.5901 41.5993 94.6349 41.607 94.6796 41.6186V42.4058C94.6157 42.3868 94.5549 42.3724 94.4974 42.3628C94.4367 42.3532 94.3727 42.3484 94.3088 42.3484C94.1426 42.3484 94.0115 42.3715 93.9156 42.4173C93.8197 42.4634 93.7462 42.5275 93.6919 42.6099C93.6407 42.6923 93.6056 42.791 93.5928 42.9058C93.5768 43.0208 93.5672 43.1474 93.5672 43.2852V44.4519H92.7009V41.659Z" fill="#2D2D2B"/>
</g>
<g id="Group_23">
<path id="Vector_22" d="M97.9337 44.4519H97.1026V44.0724H97.0898C97.0578 44.1263 97.0194 44.1798 96.9715 44.2333C96.9235 44.2872 96.8628 44.3349 96.7957 44.3769C96.7254 44.4192 96.6455 44.4538 96.556 44.4804C96.4696 44.5074 96.3737 44.5208 96.2683 44.5208C96.0477 44.5208 95.8719 44.4872 95.7344 44.4202C95.597 44.3532 95.4915 44.2602 95.4148 44.1413C95.3412 44.0227 95.2901 43.883 95.2645 43.7218C95.239 43.5609 95.2294 43.3868 95.2294 43.199V41.6589H96.0956V43.0266C96.0956 43.107 96.0988 43.1904 96.1052 43.2766C96.1084 43.3628 96.1276 43.4423 96.1564 43.515C96.1852 43.5878 96.2299 43.6471 96.2874 43.6932C96.3482 43.7391 96.4345 43.7622 96.5464 43.7622C96.6582 43.7622 96.7477 43.742 96.8181 43.7019C96.8884 43.6615 96.9395 43.608 96.9779 43.541C97.013 43.474 97.0386 43.3981 97.0482 43.3138C97.061 43.2298 97.0674 43.1416 97.0674 43.0497V41.6589H97.9337V44.4519Z" fill="#2D2D2B"/>
</g>
<g id="Group_24">
<path id="Vector_23" d="M100.622 42.5612C100.58 42.4997 100.52 42.449 100.443 42.4086C100.366 42.3686 100.283 42.3484 100.194 42.3484C99.9764 42.3484 99.8037 42.4134 99.6822 42.5439C99.5608 42.674 99.5 42.8445 99.5 43.0554C99.5 43.266 99.5608 43.4365 99.6822 43.5667C99.8037 43.6971 99.9764 43.7622 100.194 43.7622C100.293 43.7622 100.373 43.741 100.443 43.699C100.513 43.6567 100.574 43.607 100.622 43.5497L101.194 44.1471C101.06 44.2853 100.9 44.3821 100.718 44.4375C100.536 44.4929 100.36 44.5208 100.194 44.5208C99.9795 44.5208 99.775 44.4862 99.5832 44.4173C99.3946 44.3484 99.2283 44.2497 99.0877 44.1215C98.947 43.9929 98.8352 43.8388 98.7553 43.6586C98.6753 43.4785 98.6338 43.2776 98.6338 43.0554C98.6338 42.833 98.6753 42.632 98.7553 42.4519C98.8352 42.2718 98.947 42.1176 99.0877 41.9891C99.2283 41.8609 99.3946 41.7622 99.5832 41.6932C99.775 41.6243 99.9795 41.5897 100.194 41.5897C100.36 41.5897 100.536 41.6176 100.718 41.6731C100.9 41.7288 101.06 41.8256 101.194 41.9634L100.622 42.5612Z" fill="#2D2D2B"/>
</g>
<g id="Group_25">
<path id="Vector_24" d="M102.55 40.1071V42.0382H102.559C102.578 41.9846 102.613 41.9308 102.658 41.8773C102.703 41.8237 102.761 41.7757 102.824 41.7337C102.892 41.6914 102.968 41.6571 103.058 41.6301C103.147 41.6032 103.243 41.5898 103.345 41.5898C103.566 41.5898 103.742 41.6234 103.879 41.6904C104.014 41.7574 104.119 41.8503 104.193 41.9692C104.269 42.0878 104.32 42.2279 104.346 42.3888C104.375 42.5497 104.388 42.7241 104.388 42.9116V44.452H103.518V43.084C103.518 43.0036 103.518 42.9202 103.512 42.834C103.505 42.7478 103.489 42.6683 103.461 42.5955C103.429 42.5228 103.387 42.4635 103.326 42.4173C103.266 42.3715 103.179 42.3484 103.067 42.3484C102.956 42.3484 102.866 42.3686 102.796 42.4087C102.729 42.4491 102.674 42.5026 102.639 42.5699C102.601 42.6369 102.578 42.7125 102.566 42.7968C102.553 42.8811 102.55 42.9693 102.55 43.0612V44.452H101.68V40.1071H102.55Z" fill="#2D2D2B"/>
</g>
<g id="Group_26">
<path id="Vector_25" d="M105.069 43.0554C105.069 42.833 105.11 42.632 105.19 42.4519C105.273 42.2718 105.382 42.1176 105.522 41.9891C105.663 41.8609 105.829 41.7622 106.021 41.6932C106.213 41.6243 106.414 41.5897 106.632 41.5897C106.846 41.5897 107.05 41.6243 107.242 41.6932C107.431 41.7622 107.597 41.8609 107.738 41.9891C107.878 42.1176 107.99 42.2718 108.07 42.4519C108.15 42.632 108.192 42.833 108.192 43.0554C108.192 43.2776 108.15 43.4785 108.07 43.6586C107.99 43.8388 107.878 43.9929 107.738 44.1215C107.597 44.2497 107.431 44.3484 107.242 44.4173C107.05 44.4862 106.846 44.5208 106.632 44.5208C106.414 44.5208 106.213 44.4862 106.021 44.4173C105.829 44.3484 105.663 44.2497 105.522 44.1215C105.382 43.9929 105.273 43.8388 105.19 43.6586C105.11 43.4785 105.069 43.2776 105.069 43.0554ZM105.938 43.0554C105.938 43.266 105.999 43.4365 106.12 43.5667C106.242 43.6971 106.411 43.7622 106.632 43.7622C106.852 43.7622 107.022 43.6971 107.143 43.5667C107.265 43.4365 107.325 43.266 107.325 43.0554C107.325 42.8445 107.265 42.674 107.143 42.5439C107.022 42.4134 106.852 42.3484 106.632 42.3484C106.411 42.3484 106.242 42.4134 106.12 42.5439C105.999 42.674 105.938 42.8445 105.938 43.0554Z" fill="#2D2D2B"/>
</g>
<g id="Group_27">
<path id="Vector_26" d="M108.876 41.659H109.707V42.0381H109.719C109.745 41.9846 109.783 41.9307 109.835 41.8772C109.886 41.8237 109.943 41.7756 110.014 41.7336C110.084 41.6913 110.161 41.657 110.25 41.6301C110.34 41.6032 110.436 41.5897 110.538 41.5897C110.736 41.5897 110.912 41.6301 111.062 41.7106C111.215 41.791 111.331 41.9173 111.407 42.0897C111.506 41.9096 111.628 41.7814 111.772 41.7048C111.912 41.6282 112.088 41.5897 112.296 41.5897C112.488 41.5897 112.644 41.6215 112.775 41.6846C112.903 41.7481 113.006 41.834 113.082 41.9432C113.156 42.0525 113.21 42.1807 113.242 42.3282C113.277 42.4759 113.293 42.634 113.293 42.8026V44.4519H112.424V42.8253C112.424 42.6952 112.398 42.583 112.341 42.4894C112.286 42.3955 112.187 42.3484 112.043 42.3484C111.944 42.3484 111.858 42.3647 111.791 42.3974C111.724 42.4298 111.669 42.475 111.631 42.5324C111.589 42.5897 111.561 42.6567 111.542 42.7336C111.526 42.8102 111.516 42.8907 111.516 42.975V44.4519H110.65V42.975C110.65 42.925 110.646 42.8638 110.643 42.791C110.64 42.7183 110.627 42.6493 110.602 42.584C110.579 42.5189 110.541 42.4634 110.49 42.4173C110.439 42.3715 110.362 42.3484 110.263 42.3484C110.151 42.3484 110.058 42.3686 109.991 42.4086C109.921 42.449 109.866 42.5025 109.831 42.5699C109.796 42.6368 109.771 42.7125 109.758 42.7968C109.748 42.8811 109.742 42.9692 109.742 43.0612V44.4519H108.876V41.659Z" fill="#2D2D2B"/>
</g>
<g id="Group_28">
<path id="Vector_27" d="M113.974 43.0554C113.974 42.833 114.016 42.632 114.096 42.4519C114.175 42.2718 114.287 42.1176 114.428 41.9891C114.569 41.8609 114.735 41.7622 114.927 41.6932C115.115 41.6243 115.32 41.5897 115.537 41.5897C115.751 41.5897 115.956 41.6243 116.145 41.6932C116.336 41.7622 116.503 41.8609 116.643 41.9891C116.784 42.1176 116.896 42.2718 116.976 42.4519C117.056 42.632 117.097 42.833 117.097 43.0554C117.097 43.2776 117.056 43.4785 116.976 43.6586C116.896 43.8388 116.784 43.9929 116.643 44.1215C116.503 44.2497 116.336 44.3484 116.145 44.4173C115.956 44.4862 115.751 44.5208 115.537 44.5208C115.32 44.5208 115.115 44.4862 114.927 44.4173C114.735 44.3484 114.569 44.2497 114.428 44.1215C114.287 43.9929 114.175 43.8388 114.096 43.6586C114.016 43.4785 113.974 43.2776 113.974 43.0554ZM114.84 43.0554C114.84 43.266 114.901 43.4365 115.023 43.5667C115.144 43.6971 115.317 43.7622 115.537 43.7622C115.755 43.7622 115.927 43.6971 116.049 43.5667C116.17 43.4365 116.228 43.266 116.228 43.0554C116.228 42.8445 116.17 42.674 116.049 42.5439C115.927 42.4134 115.755 42.3484 115.537 42.3484C115.317 42.3484 115.144 42.4134 115.023 42.5439C114.901 42.674 114.84 42.8445 114.84 43.0554Z" fill="#2D2D2B"/>
</g>
<g id="Group_29">
<path id="Vector_28" d="M119.37 42.4807C119.242 42.3237 119.076 42.2448 118.865 42.2448C118.794 42.2448 118.721 42.2621 118.654 42.2967C118.584 42.331 118.548 42.3906 118.548 42.4749C118.548 42.5438 118.584 42.5945 118.654 42.6272C118.727 42.6596 118.817 42.6884 118.926 42.7134C119.037 42.7381 119.156 42.765 119.28 42.7939C119.405 42.8224 119.523 42.8676 119.632 42.9288C119.741 42.99 119.833 43.0733 119.904 43.1788C119.974 43.2842 120.012 43.4249 120.012 43.6012C120.012 43.7814 119.971 43.9298 119.891 44.0467C119.814 44.1634 119.712 44.2573 119.59 44.3282C119.466 44.399 119.325 44.449 119.172 44.4775C119.018 44.5064 118.865 44.5208 118.715 44.5208C118.52 44.5208 118.321 44.4929 118.12 44.4375C117.919 44.382 117.749 44.2833 117.612 44.1413L118.136 43.5608C118.219 43.6605 118.309 43.7362 118.408 43.7881C118.504 43.8397 118.619 43.8657 118.75 43.8657C118.852 43.8657 118.942 43.8512 119.021 43.8224C119.105 43.7939 119.143 43.741 119.143 43.6644C119.143 43.5916 119.108 43.5371 119.037 43.5006C118.967 43.4644 118.874 43.4336 118.766 43.4086C118.654 43.3839 118.539 43.357 118.411 43.3282C118.286 43.2996 118.168 43.2564 118.059 43.199C117.951 43.1416 117.858 43.0602 117.788 42.9547C117.717 42.8493 117.682 42.7086 117.682 42.5323C117.682 42.3676 117.714 42.2259 117.781 42.107C117.848 41.9884 117.938 41.8906 118.046 41.814C118.158 41.7374 118.283 41.6807 118.427 41.6445C118.571 41.6079 118.715 41.5897 118.862 41.5897C119.047 41.5897 119.232 41.6166 119.421 41.6701C119.61 41.724 119.769 41.8198 119.9 41.9576L119.37 42.4807ZM118.871 40.3829H120.051L119.05 41.2105H118.286L118.871 40.3829Z" fill="#2D2D2B"/>
</g>
<g id="Group_30">
<path id="Vector_29" d="M122.531 42.5612C122.49 42.4997 122.429 42.449 122.352 42.4086C122.276 42.3686 122.192 42.3484 122.103 42.3484C121.886 42.3484 121.713 42.4134 121.592 42.5439C121.47 42.674 121.409 42.8445 121.409 43.0554C121.409 43.266 121.47 43.4365 121.592 43.5667C121.713 43.6971 121.886 43.7622 122.103 43.7622C122.202 43.7622 122.282 43.741 122.352 43.699C122.423 43.6567 122.483 43.607 122.531 43.5497L123.103 44.1471C122.969 44.2853 122.809 44.3821 122.627 44.4375C122.445 44.4929 122.269 44.5208 122.103 44.5208C121.889 44.5208 121.684 44.4862 121.496 44.4173C121.304 44.3484 121.138 44.2497 120.997 44.1215C120.856 43.9929 120.744 43.8388 120.665 43.6586C120.585 43.4785 120.543 43.2776 120.543 43.0554C120.543 42.833 120.585 42.632 120.665 42.4519C120.744 42.2718 120.856 42.1176 120.997 41.9891C121.138 41.8609 121.304 41.7622 121.496 41.6932C121.684 41.6243 121.889 41.5897 122.103 41.5897C122.269 41.5897 122.445 41.6176 122.627 41.6731C122.809 41.7288 122.969 41.8256 123.103 41.9634L122.531 42.5612Z" fill="#2D2D2B"/>
</g>
<g id="Group_31">
<path id="Vector_30" d="M123.602 41.6589H124.468V44.4519H123.602V41.6589ZM123.532 40.7794C123.532 40.6416 123.583 40.5237 123.679 40.4262C123.778 40.3285 123.896 40.2794 124.037 40.2794C124.174 40.2794 124.293 40.3285 124.392 40.4262C124.491 40.5237 124.539 40.6416 124.539 40.7794C124.539 40.9176 124.491 41.0352 124.392 41.133C124.293 41.2307 124.174 41.2794 124.037 41.2794C123.896 41.2794 123.778 41.2307 123.679 41.133C123.583 41.0352 123.532 40.9176 123.532 40.7794Z" fill="#2D2D2B"/>
</g>
<g id="Group_32">
<path id="Vector_31" fill-rule="evenodd" clip-rule="evenodd" d="M33.6956 5.95319L32.413 5.93953L29.4629 2.48232L29.4996 5.92852L28.4094 5.92779L28.4278 0L32.6603 4.78337L32.6053 1.10154L33.5855 0.0172082L33.6956 5.95319Z" fill="#2D2D2B"/>
</g>
<g id="Group_33">
<path id="Vector_32" fill-rule="evenodd" clip-rule="evenodd" d="M29.7654 54.1663H33.5582L32.7978 54.9498C32.7978 54.9485 31.103 54.9007 30.2601 54.924C29.6555 54.9409 29.4265 55.4564 29.4814 56.0003C29.5364 56.4621 29.9303 56.933 30.3976 56.9259C31.2954 56.9125 32.4955 56.5706 33.2925 57.2101C33.9705 57.7572 33.833 58.9256 33.2925 59.5174C33.0726 59.7551 32.642 59.9153 32.3397 60H28.5286L29.3714 59.2051C30.1776 59.2188 30.9838 59.2324 31.79 59.2279C32.0374 59.227 32.3306 59.1969 32.5414 59.0194C32.9353 58.6761 32.8528 57.9277 32.3214 57.7562C31.9458 57.6354 31.6618 57.7509 31.2861 57.7498C30.4525 57.747 30.196 57.8319 29.4356 57.4871C28.0522 56.865 28.1988 54.7117 29.7654 54.1663Z" fill="#2D2D2B"/>
</g>
<path id="Vector_33" fill-rule="evenodd" clip-rule="evenodd" d="M25.3129 57.2481C14.3467 54.9968 5.69831 46.434 3.38965 35.5593H4.56238C6.83439 45.8044 14.988 53.8689 25.3129 56.0847V57.2481ZM52.0365 48.5645C48.0788 52.9071 42.7836 56.0186 36.8013 57.2481V56.0847C42.0874 54.9492 46.8146 52.278 50.4608 48.5645H52.0365ZM36.8013 2.19714C42.3805 3.34357 47.3642 6.12664 51.212 10.0181H49.5721C46.0633 6.75371 41.6751 4.40614 36.8013 3.3606V2.19714ZM3.38965 23.886C5.69831 13.0113 14.3467 4.44847 25.3129 2.19714V3.3606C14.988 5.57632 6.83439 13.6408 4.56238 23.886H3.38965Z" fill="#2D2D2B"/>
<g id="Group_34">
<path id="Vector_34" fill-rule="evenodd" clip-rule="evenodd" d="M3.3439 30.4023L0.0184301 32.6993L0 26.7468L1.09024 26.7461L1.08111 30.7067L3.3439 29.1424L5.61599 30.7067L5.59756 26.7461L6.6878 26.7468L6.67867 32.6993L3.3439 30.4023Z" fill="#2D2D2B"/>
</g>
</g>
</svg>
