<svg xmlns:svg="http://www.w3.org/2000/svg" xmlns="http://www.w3.org/2000/svg" width="1484.77" height="1762.0649" id="svg2" xml:space="preserve" style="fill-rule:evenodd"><defs id="defs21"></defs> <g transform="matrix(50,0,0,50,-4498.57,-6333.055)" id="Warstwa_x0020_1">    <g id="_90103712">   <path d="M 104.819,161.777 C 97.313,161.6028 90.0958,154.7908 90.0958,148.09 L 90.0958,126.7847 L 104.819,126.7847 L 119.5422,126.7847 L 119.5422,148.09 C 119.5422,154.7908 112.325,161.6028 104.819,161.777 z" id="_90140392" style="fill:none;stroke:#383431;stroke-width:0.17640001"></path>   <path d="M 104.819,161.778 C 97.313,161.6038 90.0958,154.7918 90.0958,148.091 L 90.0958,126.7857 L 104.819,126.7857 L 119.5422,126.7857 L 119.5422,148.091 C 119.5422,154.7918 112.325,161.6038 104.819,161.778 z" id="_90140320" style="fill:#cf261d"></path>   <polygon points="107.696,131.63 108.161,133.174 109.744,132.813 108.664,134.014 109.707,135.14 108.161,134.892 107.715,136.266 107.231,134.892 105.61,135.065 106.728,134.033 105.685,132.831 107.231,133.174 107.696,131.63 " id="_90140248" style="fill:#f6b800"></polygon>   <polygon points="107.665,139.709 108.13,141.253 109.713,140.891 108.632,142.093 109.676,143.219 108.13,142.971 107.684,144.345 107.2,142.971 105.579,143.144 106.697,142.112 105.654,140.91 107.2,141.253 107.665,139.709 " id="_90140176" style="fill:#f6b800"></polygon>   <polygon points="107.384,147.788 107.849,149.332 109.433,148.97 108.352,150.172 109.395,151.298 107.849,151.049 107.403,152.424 106.919,151.049 105.298,151.223 106.417,150.191 105.373,148.989 106.919,149.332 107.384,147.788 " id="_90140104" style="fill:#f6b800"></polygon>   <polygon points="112.348,131.63 112.813,133.174 114.397,132.813 113.316,134.014 114.359,135.14 112.813,134.892 112.367,136.266 111.883,134.892 110.262,135.065 111.38,134.033 110.337,132.831 111.883,133.174 112.348,131.63 " id="_90140032" style="fill:#f6b800"></polygon>   <polygon points="112.317,139.709 112.782,141.253 114.365,140.891 113.285,142.093 114.328,143.219 112.782,142.971 112.336,144.345 111.852,142.971 110.231,143.144 111.349,142.112 110.306,140.91 111.852,141.253 112.317,139.709 " id="_90139960" style="fill:#f6b800"></polygon>   <polygon points="112.036,147.788 112.501,149.332 114.085,148.97 113.004,150.172 114.047,151.298 112.501,151.049 112.055,152.424 111.571,151.049 109.95,151.223 111.069,150.191 110.026,148.989 111.571,149.332 112.036,147.788 " id="_90139888" style="fill:#f6b800"></polygon>   <polygon points="117,131.63 117.465,133.174 119.049,132.813 117.968,134.014 119.011,135.14 117.465,134.892 117.019,136.266 116.535,134.892 114.914,135.065 116.033,134.033 114.99,132.831 116.535,133.174 117,131.63 " id="_90139816" style="fill:#f6b800"></polygon>   <polygon points="116.969,139.709 117.434,141.253 119.018,140.891 117.937,142.093 118.98,143.219 117.434,142.971 116.988,144.345 116.504,142.971 114.883,143.144 116.001,142.112 114.958,140.91 116.504,141.253 116.969,139.709 " id="_90139744" style="fill:#f6b800"></polygon>   <polygon points="116.689,147.788 117.154,149.332 118.737,148.97 117.656,150.172 118.699,151.298 117.154,151.049 116.708,152.424 116.224,151.049 114.603,151.223 115.721,150.191 114.678,148.989 116.224,149.332 116.689,147.788 " id="_90139672" style="fill:#f6b800"></polygon>   <polygon points="90.0959,138.449 104.819,138.449 104.819,132.617 90.0959,132.617 90.0959,138.449 " id="_90139600" style="fill:#f6b800"></polygon>   <path d="M 90.3095,150.112 L 104.8191,150.112 L 104.8191,144.2805 L 90.0959,144.2805 L 90.0959,148.0913 C 90.0959,148.7661 90.1701,149.4419 90.3095,150.112 z" id="_90139528" style="fill:#f6b800"></path>   <path d="M 104.728,161.775 L 104.8188,161.775 L 104.8188,155.9436 L 93.2747,155.9436 C 96.0605,159.2483 100.3399,161.6419 104.728,161.775 z" id="_90103808" style="fill:#f6b800"></path>   <path d="M 107.647,131.615 L 107.7449,131.615 L 108.1961,133.1135 L 109.7329,132.7625 L 109.7822,132.8464 L 108.7327,134.0133 L 109.7442,135.1053 L 109.6987,135.1903 L 108.196,134.9487 L 107.7633,136.282 L 107.6666,136.283 L 107.1962,134.9464 L 105.6152,135.1153 L 105.5752,135.0271 L 106.6573,134.0288 L 105.6466,132.8645 L 105.6961,132.7813 L 107.1956,133.1139 L 107.647,131.615 L 107.647,131.615 z M 104.8216,161.9024 L 104.8167,161.9024 C 101.0464,161.8149 97.3496,160.068 94.5895,157.502 C 91.8054,154.9139 89.9714,151.4898 89.9714,148.0909 L 89.9714,126.6611 L 119.6668,126.6611 L 119.6668,148.0909 C 119.6668,151.4898 117.8328,154.9139 115.0487,157.502 C 112.2886,160.068 108.5918,161.8149 104.8216,161.9024 L 104.8216,161.9024 z M 90.2204,138.3656 L 104.7361,138.3656 L 104.7361,132.7001 L 90.2204,132.7001 L 90.2204,138.3656 z M 104.7361,161.6508 L 104.7361,156.0261 L 93.5088,156.0261 C 93.8987,156.4763 94.3163,156.9089 94.7587,157.3201 C 97.456,159.8276 101.0587,161.5405 104.7361,161.6508 L 104.7361,161.6508 z M 104.9021,126.9102 L 104.9021,132.5341 L 104.9021,132.7001 L 104.9021,138.3656 L 104.9021,138.5316 L 104.9021,144.1971 L 104.9021,144.3631 L 104.9021,150.0286 L 104.9021,150.1946 L 104.9021,155.8601 L 104.9021,156.0261 L 104.9021,161.6508 C 108.5796,161.5405 112.1822,159.8276 114.8795,157.3201 C 117.6155,154.7766 119.4178,151.4182 119.4178,148.0909 L 119.4178,126.9102 L 104.9021,126.9102 L 104.9021,126.9102 z M 90.4187,150.0286 L 104.7361,150.0286 L 104.7361,144.3631 L 90.2204,144.3631 L 90.2204,148.0909 C 90.2204,148.7377 90.2889,149.3857 90.4187,150.0286 L 90.4187,150.0286 z M 90.2204,132.5341 L 104.7361,132.5341 L 104.7361,126.9102 L 90.2204,126.9102 L 90.2204,132.5341 z M 90.2204,144.1971 L 104.7361,144.1971 L 104.7361,138.5316 L 90.2204,138.5316 L 90.2204,144.1971 z M 93.367,155.8601 L 104.7361,155.8601 L 104.7361,150.1946 L 90.4536,150.1946 C 90.8924,152.2007 91.9284,154.1523 93.367,155.8601 z M 107.6959,131.8067 L 107.2798,133.1885 L 107.2661,133.2339 L 107.2199,133.2236 L 105.8248,132.9142 L 106.7668,133.9993 L 106.7991,134.0367 L 106.7628,134.0703 L 105.7577,134.9975 L 107.2254,134.8407 L 107.2655,134.8364 L 107.279,134.8746 L 107.7128,136.107 L 108.1124,134.8756 L 108.1259,134.8341 L 108.1689,134.841 L 109.5685,135.0662 L 108.626,134.0486 L 108.5943,134.0145 L 108.6256,133.9797 L 109.5987,132.8978 L 108.1723,133.2236 L 108.1257,133.2343 L 108.112,133.1885 L 107.6959,131.8067 L 107.6959,131.8067 z M 107.6158,139.6939 L 107.7137,139.6939 L 108.1649,141.1925 L 109.7018,140.8415 L 109.7511,140.9254 L 108.7015,142.0922 L 109.713,143.1842 L 109.6675,143.2693 L 108.1648,143.0277 L 107.7321,144.3609 L 107.6354,144.362 L 107.1651,143.0254 L 105.584,143.1943 L 105.544,143.106 L 106.6261,142.1076 L 105.6154,140.9434 L 105.6649,140.8603 L 107.1645,141.1929 L 107.6158,139.6939 L 107.6158,139.6939 z M 107.6647,139.8856 L 107.2487,141.2675 L 107.235,141.3129 L 107.1888,141.3026 L 105.7936,140.9932 L 106.7356,142.0782 L 106.7679,142.1156 L 106.7316,142.1491 L 105.7265,143.0765 L 107.1943,142.9197 L 107.2344,142.9154 L 107.2479,142.9536 L 107.6816,144.186 L 108.0812,142.9546 L 108.0947,142.9131 L 108.1377,142.9201 L 109.5373,143.1451 L 108.5948,142.1275 L 108.5631,142.0934 L 108.5944,142.0586 L 109.5675,140.9768 L 108.1411,141.3026 L 108.0945,141.3133 L 108.0808,141.2675 L 107.6647,139.8856 L 107.6647,139.8856 z M 107.3352,147.7728 L 107.4331,147.7728 L 107.8844,149.2715 L 109.4214,148.9204 L 109.4706,149.0043 L 108.4211,150.1712 L 109.4325,151.2632 L 109.387,151.3483 L 107.8843,151.1065 L 107.4515,152.4399 L 107.3549,152.4409 L 106.8845,151.1043 L 105.3035,151.2733 L 105.2635,151.185 L 106.3455,150.1866 L 105.3349,149.0224 L 105.3844,148.9393 L 106.8839,149.2718 L 107.3352,147.7728 L 107.3352,147.7728 z M 107.3841,147.9645 L 106.9681,149.3464 L 106.9544,149.3918 L 106.9082,149.3815 L 105.5131,149.0722 L 106.455,150.1572 L 106.4874,150.1946 L 106.451,150.2282 L 105.446,151.1554 L 106.9138,150.9986 L 106.9539,150.9943 L 106.9673,151.0325 L 107.401,152.2649 L 107.8007,151.0335 L 107.8141,150.992 L 107.8572,150.9989 L 109.2568,151.2241 L 108.3144,150.2065 L 108.2827,150.1723 L 108.314,150.1376 L 109.2871,149.0557 L 107.8604,149.3815 L 107.814,149.3922 L 107.8003,149.3464 L 107.3841,147.9645 z M 112.2992,131.615 L 112.3971,131.615 L 112.8482,133.1135 L 114.3851,132.7625 L 114.4344,132.8464 L 113.385,134.0133 L 114.3964,135.1053 L 114.3508,135.1903 L 112.8481,134.9487 L 112.4155,136.282 L 112.3188,136.283 L 111.8484,134.9464 L 110.2674,135.1153 L 110.2275,135.0271 L 111.3095,134.0288 L 110.2988,132.8645 L 110.3483,132.7813 L 111.8479,133.1139 L 112.2992,131.615 L 112.2992,131.615 z M 112.3481,131.8067 L 111.932,133.1885 L 111.9183,133.2339 L 111.8721,133.2236 L 110.477,132.9142 L 111.419,133.9993 L 111.4514,134.0367 L 111.415,134.0703 L 110.41,134.9975 L 111.8777,134.8407 L 111.9178,134.8364 L 111.9312,134.8746 L 112.365,136.107 L 112.7646,134.8756 L 112.778,134.8341 L 112.8211,134.841 L 114.2207,135.0662 L 113.2783,134.0486 L 113.2466,134.0145 L 113.2779,133.9797 L 114.2509,132.8978 L 112.8245,133.2236 L 112.7779,133.2343 L 112.7641,133.1885 L 112.3481,131.8067 z M 112.268,139.6939 L 112.3659,139.6939 L 112.8171,141.1925 L 114.354,140.8415 L 114.4033,140.9254 L 113.3538,142.0922 L 114.3653,143.1842 L 114.3197,143.2693 L 112.817,143.0277 L 112.3843,144.3609 L 112.2876,144.362 L 111.8172,143.0254 L 110.2362,143.1943 L 110.1962,143.106 L 111.2783,142.1076 L 110.2677,140.9434 L 110.3172,140.8603 L 111.8167,141.1929 L 112.268,139.6939 L 112.268,139.6939 z M 112.317,139.8856 L 111.9008,141.2675 L 111.8871,141.3129 L 111.8409,141.3026 L 110.4459,140.9932 L 111.3878,142.0782 L 111.4202,142.1156 L 111.3838,142.1491 L 110.3788,143.0765 L 111.8465,142.9197 L 111.8866,142.9154 L 111.9,142.9536 L 112.3338,144.186 L 112.7335,142.9546 L 112.7469,142.9131 L 112.79,142.9201 L 114.1896,143.1451 L 113.2471,142.1275 L 113.2154,142.0934 L 113.2467,142.0586 L 114.2197,140.9768 L 112.7934,141.3026 L 112.7468,141.3133 L 112.733,141.2675 L 112.317,139.8856 L 112.317,139.8856 z M 111.9875,147.7728 L 112.0854,147.7728 L 112.5366,149.2715 L 114.0736,148.9204 L 114.1227,149.0043 L 113.0732,150.1712 L 114.0847,151.2632 L 114.0392,151.3483 L 112.5365,151.1065 L 112.1038,152.4399 L 112.0071,152.4409 L 111.5367,151.1043 L 109.9557,151.2733 L 109.9157,151.185 L 110.9978,150.1866 L 109.9871,149.0224 L 110.0366,148.9393 L 111.5362,149.2718 L 111.9875,147.7728 L 111.9875,147.7728 z M 112.0364,147.9645 L 111.6203,149.3464 L 111.6066,149.3918 L 111.5604,149.3815 L 110.1653,149.0722 L 111.1073,150.1572 L 111.1397,150.1946 L 111.1033,150.2282 L 110.0983,151.1554 L 111.566,150.9986 L 111.6061,150.9943 L 111.6195,151.0325 L 112.0533,152.2649 L 112.4529,151.0335 L 112.4664,150.992 L 112.5094,150.9989 L 113.9091,151.224 L 112.9665,150.2065 L 112.9348,150.1723 L 112.9661,150.1376 L 113.9392,149.0557 L 112.5126,149.3815 L 112.4662,149.3922 L 112.4525,149.3464 L 112.0364,147.9645 L 112.0364,147.9645 z M 116.9514,131.615 L 117.0493,131.615 L 117.5005,133.1135 L 119.0373,132.7625 L 119.0867,132.8464 L 118.0372,134.0133 L 119.0486,135.1053 L 119.0031,135.1903 L 117.5004,134.9487 L 117.0677,136.282 L 116.9711,136.283 L 116.5006,134.9464 L 114.9196,135.1153 L 114.8796,135.0271 L 115.9617,134.0288 L 114.951,132.8645 L 115.0005,132.7813 L 116.5,133.1139 L 116.9514,131.615 L 116.9514,131.615 z M 117.0004,131.8067 L 116.5842,133.1885 L 116.5705,133.2339 L 116.5243,133.2236 L 115.1292,132.9142 L 116.0712,133.9993 L 116.1036,134.0367 L 116.0672,134.0703 L 115.0622,134.9975 L 116.5299,134.8407 L 116.57,134.8364 L 116.5834,134.8746 L 117.0172,136.107 L 117.4168,134.8756 L 117.4303,134.8341 L 117.4733,134.841 L 118.873,135.0662 L 117.9304,134.0486 L 117.8988,134.0145 L 117.9301,133.9797 L 118.9031,132.8978 L 117.4767,133.2236 L 117.4301,133.2343 L 117.4164,133.1885 L 117.0004,131.8067 z M 116.9202,139.6939 L 117.0181,139.6939 L 117.4693,141.1925 L 119.0062,140.8415 L 119.0555,140.9254 L 118.0059,142.0922 L 119.0174,143.1842 L 118.9719,143.2693 L 117.4692,143.0277 L 117.0365,144.3609 L 116.9399,144.362 L 116.4695,143.0254 L 114.8884,143.1943 L 114.8484,143.106 L 115.9305,142.1076 L 114.9198,140.9434 L 114.9693,140.8603 L 116.4689,141.1929 L 116.9202,139.6939 L 116.9202,139.6939 z M 116.9692,139.8856 L 116.5531,141.2675 L 116.5394,141.3129 L 116.4932,141.3026 L 115.0981,140.9932 L 116.04,142.0782 L 116.0724,142.1156 L 116.036,142.1491 L 115.031,143.0765 L 116.4988,142.9197 L 116.5388,142.9154 L 116.5523,142.9536 L 116.986,144.186 L 117.3856,142.9546 L 117.3991,142.9131 L 117.4421,142.9201 L 118.8418,143.1451 L 117.8992,142.1275 L 117.8675,142.0934 L 117.8988,142.0586 L 118.8719,140.9768 L 117.4455,141.3026 L 117.3989,141.3133 L 117.3852,141.2675 L 116.9692,139.8856 L 116.9692,139.8856 z M 116.6396,147.7728 L 116.7375,147.7728 L 117.1888,149.2715 L 118.7259,148.9204 L 118.775,149.0043 L 117.7255,150.1712 L 118.7369,151.2632 L 118.6914,151.3483 L 117.1887,151.1065 L 116.756,152.4399 L 116.6593,152.4409 L 116.1889,151.1043 L 114.6079,151.2733 L 114.5679,151.185 L 115.65,150.1866 L 114.6393,149.0224 L 114.6888,148.9393 L 116.1883,149.2718 L 116.6396,147.7728 L 116.6396,147.7728 z M 116.6886,147.9645 L 116.2726,149.3464 L 116.2589,149.3918 L 116.2127,149.3815 L 114.8175,149.0722 L 115.7595,150.1572 L 115.7918,150.1946 L 115.7555,150.2282 L 114.7505,151.1554 L 116.2182,150.9986 L 116.2583,150.9943 L 116.2718,151.0325 L 116.7055,152.2649 L 117.1051,151.0335 L 117.1186,150.992 L 117.1616,150.9989 L 118.5613,151.2241 L 117.6188,150.2065 L 117.5871,150.1723 L 117.6184,150.1376 L 118.5915,149.0557 L 117.1648,149.3815 L 117.1184,149.3922 L 117.1047,149.3464 L 116.6886,147.9645 z" id="_90103736" style="fill:#1f1a17;fill-rule:nonzero"></path>  </g> </g></svg>