<?xml version="1.0" encoding="UTF-8" standalone="no"?><!DOCTYPE svg PUBLIC "-//W3C//DTD SVG 1.1//EN" "http://www.w3.org/Graphics/SVG/1.1/DTD/svg11.dtd"><svg width="100%" height="100%" viewBox="0 0 158 159" version="1.1" xmlns="http://www.w3.org/2000/svg" xmlns:xlink="http://www.w3.org/1999/xlink" xml:space="preserve" xmlns:serif="http://www.serif.com/" style="fill-rule:evenodd;clip-rule:evenodd;stroke-linejoin:round;stroke-miterlimit:2;"><g><path d="M51.487,118.644l38.112,-46.381l2.411,11.471l-18.28,22.51l24.147,1.374l13.137,11.449l-59.527,-0.423Z" style="fill:#ff5635;"/><path d="M111.204,38.046l-38.112,46.382l-2.411,-11.471l18.28,-22.51l-24.147,-1.374l-13.137,-11.449l59.527,0.422Z" style="fill:#ff5635;"/></g><g><path d="M88.275,15.692l-3.371,-0.036l-7.74,-9.113l0.097,9.084l-2.845,-0.002l0.037,-15.625l11.106,12.608l-0.162,-9.704l2.576,-2.859l0.302,15.647Z" style="fill:#2d2d2b;"/></g><g><path d="M77.789,142.776l9.941,0l-1.983,2.065c-0.009,-0.003 -4.447,-0.129 -6.639,-0.068c-1.593,0.045 -2.204,1.404 -2.045,2.837c0.136,1.218 1.159,2.459 2.405,2.44c2.338,-0.035 5.487,-0.937 7.571,0.749c1.782,1.442 1.417,4.521 -0.009,6.081c-0.574,0.627 -1.694,1.051 -2.476,1.273l-9.986,0l2.195,-2.096c2.11,0.037 4.221,0.073 6.331,0.061c0.669,-0.003 1.436,-0.083 1.975,-0.55c1.045,-0.904 0.816,-2.878 -0.568,-3.329c-0.977,-0.319 -1.735,-0.014 -2.714,-0.017c-2.177,-0.007 -2.85,0.216 -4.856,-0.693c-3.618,-1.639 -3.236,-7.315 0.858,-8.753Z" style="fill:#2d2d2b;"/></g><g><path d="M8.759,80.137l-8.722,6.054l-0.037,-15.69l2.857,-0.002l-0.043,10.44l5.945,-4.123l-0,-0l0,-0l0,-0l0,-0l5.946,4.123l-0.044,-10.44l2.857,0.002l-0.037,15.69l-8.722,-6.054Z" style="fill:#2d2d2b;"/></g><path d="M66.296,150.899c-28.712,-5.934 -51.371,-28.504 -57.434,-57.169l3.07,-0c5.967,27.005 27.312,48.262 54.364,54.103l0,3.066Zm87.533,-57.169c-6.063,28.665 -28.722,51.235 -57.434,57.169l-0,-3.066c27.052,-5.841 48.397,-27.098 54.364,-54.103l3.07,-0Zm-57.434,-87.939c28.712,5.935 51.371,28.505 57.434,57.17l-3.07,-0c-5.967,-27.005 -27.312,-48.262 -54.364,-54.103l-0,-3.067Zm-87.533,57.17c6.063,-28.665 28.722,-51.235 57.434,-57.17l0,3.067c-27.052,5.841 -48.397,27.098 -54.364,54.103l-3.07,-0Z" style="fill:#2d2d2b;"/><g><path d="M146.806,73.09l2.442,-2.591l8.606,0.032l-1.973,2.637l-9.075,-0.078Z" style="fill:#2d2d2b;"/><path d="M146.806,86.113l-0,0l0,-0l-0,-15.614l2.56,0l-0.005,6.492l8.605,0.031l-1.972,2.637l-6.147,-0.053l-0.044,3.919l8.051,0.029l-1.973,2.637l-7.24,-0.062l-1.835,-0.008l0,-0.008Z" style="fill:#2d2d2b;"/></g></svg>