<svg xmlns="http://www.w3.org/2000/svg" width="225" height="50" viewBox="0 0 225 50" fill="none"><path d="M63.1956 31V19.376C63.7503 19.264 64.3209 19.176 64.9076 19.112C65.4996 19.048 66.1236 19.016 66.7796 19.016C68.5396 19.016 69.8623 19.36 70.7476 20.048C71.6383 20.7307 72.0836 21.8133 72.0836 23.296C72.0836 24.6933 71.6516 25.7547 70.7876 26.48C69.9289 27.2053 68.6463 27.568 66.9396 27.568C66.7369 27.568 66.5449 27.5653 66.3636 27.56C66.1823 27.5493 65.9929 27.536 65.7956 27.52V31H63.1956ZM66.9716 25.616C67.8623 25.616 68.5156 25.4373 68.9316 25.08C69.3476 24.7173 69.5556 24.128 69.5556 23.312C69.5556 22.4907 69.3476 21.896 68.9316 21.528C68.5209 21.1547 67.8836 20.968 67.0196 20.968C66.7796 20.968 66.5636 20.976 66.3716 20.992C66.1796 21.0027 65.9876 21.0267 65.7956 21.064V25.544C65.9929 25.5653 66.1823 25.584 66.3636 25.6C66.5449 25.6107 66.7476 25.616 66.9716 25.616ZM77.307 31.168C76.4323 31.168 75.675 31.0027 75.035 30.672C74.4003 30.336 73.9096 29.8347 73.563 29.168C73.2163 28.496 73.043 27.656 73.043 26.648C73.043 25.6293 73.211 24.784 73.547 24.112C73.8883 23.44 74.3763 22.9387 75.011 22.608C75.651 22.2773 76.4163 22.112 77.307 22.112C78.1976 22.112 78.9603 22.28 79.595 22.616C80.235 22.9467 80.723 23.448 81.059 24.12C81.4003 24.7867 81.571 25.624 81.571 26.632C81.571 27.6453 81.3976 28.488 81.051 29.16C80.7043 29.832 80.211 30.336 79.571 30.672C78.9363 31.0027 78.1816 31.168 77.307 31.168ZM77.307 29.232C77.6643 29.232 77.9683 29.1547 78.219 29C78.475 28.8453 78.6696 28.5813 78.803 28.208C78.9363 27.8293 79.003 27.312 79.003 26.656C79.003 25.984 78.9363 25.4587 78.803 25.08C78.6696 24.7013 78.475 24.4347 78.219 24.28C77.9683 24.12 77.6643 24.04 77.307 24.04C76.9496 24.04 76.643 24.1173 76.387 24.272C76.1363 24.4267 75.9443 24.6933 75.811 25.072C75.6776 25.4453 75.611 25.9627 75.611 26.624C75.611 27.296 75.6776 27.8213 75.811 28.2C75.9443 28.5787 76.1363 28.8453 76.387 29C76.643 29.1547 76.9496 29.232 77.307 29.232ZM84.6325 31L82.2725 22.248H84.6885L86.2565 28.52H86.1285L87.8245 22.248H90.6405L92.3045 28.52H92.1285L93.7525 22.248H96.0645L93.7285 31H90.9045L89.1205 24.4H89.2725L87.4485 31H84.6325ZM97.3648 31V22.248H99.9168V31H97.3648ZM98.6368 20.976C98.1035 20.976 97.7062 20.8587 97.4448 20.624C97.1888 20.3893 97.0608 20.064 97.0608 19.648C97.0608 19.2213 97.1888 18.8933 97.4448 18.664C97.7062 18.4293 98.1035 18.312 98.6368 18.312C99.1755 18.312 99.5728 18.4293 99.8288 18.664C100.085 18.8933 100.213 19.2213 100.213 19.648C100.213 20.064 100.085 20.3893 99.8288 20.624C99.5728 20.8587 99.1755 20.976 98.6368 20.976ZM104.21 31.16C103.314 31.16 102.615 30.928 102.114 30.464C101.618 29.9947 101.37 29.384 101.37 28.632C101.37 27.8053 101.655 27.16 102.226 26.696C102.802 26.232 103.73 25.9573 105.01 25.872L106.85 25.72L107.122 27.128L105.266 27.28C104.775 27.3173 104.421 27.4293 104.202 27.616C103.989 27.8027 103.882 28.0587 103.882 28.384C103.882 28.704 103.981 28.952 104.178 29.128C104.375 29.2987 104.663 29.384 105.042 29.384C105.277 29.384 105.517 29.344 105.762 29.264C106.007 29.1787 106.231 29.0347 106.434 28.832V25.632C106.434 25.232 106.367 24.9173 106.234 24.688C106.106 24.4587 105.895 24.296 105.602 24.2C105.314 24.0987 104.927 24.048 104.442 24.048C104.106 24.048 103.725 24.0773 103.298 24.136C102.871 24.1893 102.463 24.2773 102.074 24.4V22.48C102.501 22.3573 102.967 22.2667 103.474 22.208C103.986 22.144 104.461 22.112 104.898 22.112C105.826 22.112 106.586 22.2267 107.178 22.456C107.775 22.6853 108.215 23.0693 108.498 23.608C108.781 24.1413 108.922 24.8693 108.922 25.792V31H106.826L106.65 30.128H106.53C106.269 30.4853 105.935 30.7467 105.53 30.912C105.125 31.0773 104.685 31.16 104.21 31.16ZM114.651 31.16C113.595 31.16 112.782 30.8987 112.211 30.376C111.646 29.848 111.363 29.0133 111.363 27.872V22.248L111.827 19.16H113.907V27.472C113.907 28.0747 114.019 28.4907 114.243 28.72C114.473 28.9493 114.841 29.064 115.347 29.064C115.486 29.064 115.627 29.056 115.771 29.04C115.921 29.0187 116.086 28.992 116.267 28.96V30.976C116.038 31.024 115.779 31.0667 115.491 31.104C115.209 31.1413 114.929 31.16 114.651 31.16ZM109.939 24.256V22.248H116.211V24.256H109.939ZM121.649 31V19.16H124.249V28.84H129.689V31H121.649ZM130.865 31V22.248H133.417V31H130.865ZM132.137 20.976C131.604 20.976 131.206 20.8587 130.945 20.624C130.689 20.3893 130.561 20.064 130.561 19.648C130.561 19.2213 130.689 18.8933 130.945 18.664C131.206 18.4293 131.604 18.312 132.137 18.312C132.676 18.312 133.073 18.4293 133.329 18.664C133.585 18.8933 133.713 19.2213 133.713 19.648C133.713 20.064 133.585 20.3893 133.329 20.624C133.073 20.8587 132.676 20.976 132.137 20.976ZM135.318 31V22.248H137.422L137.59 23.144H137.71C138.019 22.8027 138.379 22.5467 138.79 22.376C139.206 22.2 139.665 22.112 140.166 22.112C140.683 22.112 141.147 22.224 141.558 22.448C141.974 22.6667 142.299 23.024 142.534 23.52C142.774 24.0107 142.894 24.6613 142.894 25.472V31H140.398V25.688C140.398 25.1653 140.299 24.8053 140.102 24.608C139.91 24.4053 139.643 24.304 139.302 24.304C139.131 24.304 138.955 24.3307 138.774 24.384C138.598 24.4373 138.43 24.5173 138.27 24.624C138.115 24.7307 137.979 24.8667 137.862 25.032V31H135.318ZM145.374 31V25.688C145.374 25.1653 145.267 24.8053 145.054 24.608C144.841 24.4053 144.566 24.304 144.23 24.304C144.043 24.304 143.857 24.3333 143.67 24.392C143.489 24.4453 143.315 24.5307 143.15 24.648C142.985 24.7653 142.841 24.9173 142.718 25.104L142.214 23.448C142.603 22.9733 143.043 22.632 143.534 22.424C144.025 22.216 144.518 22.112 145.014 22.112C145.574 22.112 146.073 22.224 146.51 22.448C146.947 22.672 147.291 23.0373 147.542 23.544C147.793 24.0507 147.918 24.72 147.918 25.552V31H145.374ZM152.147 31.16C151.251 31.16 150.553 30.928 150.051 30.464C149.555 29.9947 149.307 29.384 149.307 28.632C149.307 27.8053 149.593 27.16 150.163 26.696C150.739 26.232 151.667 25.9573 152.947 25.872L154.787 25.72L155.059 27.128L153.203 27.28C152.713 27.3173 152.358 27.4293 152.139 27.616C151.926 27.8027 151.819 28.0587 151.819 28.384C151.819 28.704 151.918 28.952 152.115 29.128C152.313 29.2987 152.601 29.384 152.979 29.384C153.214 29.384 153.454 29.344 153.699 29.264C153.945 29.1787 154.169 29.0347 154.371 28.832V25.632C154.371 25.232 154.305 24.9173 154.171 24.688C154.043 24.4587 153.833 24.296 153.539 24.2C153.251 24.0987 152.865 24.048 152.379 24.048C152.043 24.048 151.662 24.0773 151.235 24.136C150.809 24.1893 150.401 24.2773 150.011 24.4V22.48C150.438 22.3573 150.905 22.2667 151.411 22.208C151.923 22.144 152.398 22.112 152.835 22.112C153.763 22.112 154.523 22.2267 155.115 22.456C155.713 22.6853 156.153 23.0693 156.435 23.608C156.718 24.1413 156.859 24.8693 156.859 25.792V31H154.763L154.587 30.128H154.467C154.206 30.4853 153.873 30.7467 153.467 30.912C153.062 31.0773 152.622 31.16 152.147 31.16ZM158.693 31V22.248H160.797L160.965 23.136H161.085C161.41 22.8053 161.792 22.552 162.229 22.376C162.666 22.2 163.141 22.112 163.653 22.112C164.229 22.112 164.741 22.2267 165.189 22.456C165.642 22.68 165.997 23.0453 166.253 23.552C166.509 24.0533 166.637 24.7173 166.637 25.544V31H164.085V25.704C164.085 25.176 163.976 24.8107 163.757 24.608C163.538 24.4053 163.237 24.304 162.853 24.304C162.661 24.304 162.466 24.3307 162.269 24.384C162.077 24.432 161.89 24.5093 161.709 24.616C161.533 24.7227 161.376 24.856 161.237 25.016V31H158.693ZM172.338 31.168C171.464 31.168 170.706 31.0027 170.066 30.672C169.432 30.336 168.941 29.8347 168.594 29.168C168.248 28.496 168.074 27.656 168.074 26.648C168.074 25.6293 168.242 24.784 168.578 24.112C168.92 23.44 169.408 22.9387 170.042 22.608C170.682 22.2773 171.448 22.112 172.338 22.112C173.229 22.112 173.992 22.28 174.626 22.616C175.266 22.9467 175.754 23.448 176.09 24.12C176.432 24.7867 176.602 25.624 176.602 26.632C176.602 27.6453 176.429 28.488 176.082 29.16C175.736 29.832 175.242 30.336 174.602 30.672C173.968 31.0027 173.213 31.168 172.338 31.168ZM172.338 29.232C172.696 29.232 173 29.1547 173.25 29C173.506 28.8453 173.701 28.5813 173.834 28.208C173.968 27.8293 174.034 27.312 174.034 26.656C174.034 25.984 173.968 25.4587 173.834 25.08C173.701 24.7013 173.506 24.4347 173.25 24.28C173 24.12 172.696 24.04 172.338 24.04C171.981 24.04 171.674 24.1173 171.418 24.272C171.168 24.4267 170.976 24.6933 170.842 25.072C170.709 25.4453 170.642 25.9627 170.642 26.624C170.642 27.296 170.709 27.8213 170.842 28.2C170.976 28.5787 171.168 28.8453 171.418 29C171.674 29.1547 171.981 29.232 172.338 29.232ZM179.664 31L177.304 22.248H179.72L181.288 28.52H181.16L182.856 22.248H185.672L187.336 28.52H187.16L188.784 22.248H191.096L188.76 31H185.936L184.152 24.4H184.304L182.48 31H179.664ZM194.792 31.168C194.291 31.168 193.803 31.136 193.328 31.072C192.859 31.008 192.416 30.912 192 30.784V28.912C192.422 29.04 192.867 29.1387 193.336 29.208C193.806 29.272 194.28 29.304 194.76 29.304C195.336 29.304 195.742 29.2293 195.976 29.08C196.216 28.9253 196.336 28.712 196.336 28.44C196.336 28.2213 196.278 28.056 196.16 27.944C196.043 27.832 195.838 27.7467 195.544 27.688L194.12 27.432C193.299 27.2773 192.702 26.992 192.328 26.576C191.955 26.16 191.768 25.6027 191.768 24.904C191.768 24.0667 192.104 23.392 192.776 22.88C193.454 22.368 194.491 22.112 195.888 22.112C196.315 22.112 196.728 22.136 197.128 22.184C197.534 22.232 197.899 22.2987 198.224 22.384V24.256C197.883 24.16 197.52 24.088 197.136 24.04C196.752 23.992 196.36 23.968 195.96 23.968C195.475 23.968 195.102 24.0107 194.84 24.096C194.579 24.176 194.395 24.2827 194.288 24.416C194.187 24.5493 194.136 24.6933 194.136 24.848C194.136 25.0347 194.195 25.1867 194.312 25.304C194.43 25.4213 194.632 25.512 194.92 25.576L196.344 25.832C197.123 25.976 197.71 26.2427 198.104 26.632C198.504 27.016 198.704 27.5893 198.704 28.352C198.704 29.2213 198.363 29.9093 197.68 30.416C197.003 30.9173 196.04 31.168 194.792 31.168ZM206.02 31L202.924 26.504L205.796 22.248H208.516L205.508 26.792V26.12L208.796 31H206.02ZM202.38 27.528V25.488H203.828V27.528H202.38ZM200.052 31V18.072H202.596V31H200.052ZM209.49 31V22.248H212.042V31H209.49ZM210.762 20.976C210.229 20.976 209.831 20.8587 209.57 20.624C209.314 20.3893 209.186 20.064 209.186 19.648C209.186 19.2213 209.314 18.8933 209.57 18.664C209.831 18.4293 210.229 18.312 210.762 18.312C211.301 18.312 211.698 18.4293 211.954 18.664C212.21 18.8933 212.338 19.2213 212.338 19.648C212.338 20.064 212.21 20.3893 211.954 20.624C211.698 20.8587 211.301 20.976 210.762 20.976Z" fill="#465867"></path><path fill-rule="evenodd" clip-rule="evenodd" d="M21.0656 49.822C10.4162 49.5748 0.176514 39.9101 0.176514 30.403V0.175293H21.0656H41.9548V30.403C41.9548 39.9101 31.7151 49.5748 21.0656 49.822Z" stroke="#383431" stroke-width="0.3"></path><path fill-rule="evenodd" clip-rule="evenodd" d="M21.0656 49.8235C10.4162 49.5763 0.176514 39.9115 0.176514 30.4045V0.176758H21.0656H41.9548V30.4045C41.9548 39.9115 31.7151 49.5763 21.0656 49.8235Z" fill="#CF261D"></path><path fill-rule="evenodd" clip-rule="evenodd" d="M25.1476 7.0498L25.8073 9.2404L28.0533 8.72823L26.521 10.4322L28.0008 12.0297L25.8073 11.6779L25.1745 13.6273L24.4878 11.6779L22.188 11.9233L23.7742 10.4592L22.2944 8.75376L24.4878 9.2404L25.1476 7.0498Z" fill="#F6B800"></path><path fill-rule="evenodd" clip-rule="evenodd" d="M25.1036 18.5122L25.7634 20.7028L28.0093 20.1892L26.4756 21.8946L27.9568 23.4922L25.7634 23.1403L25.1306 25.0897L24.4439 23.1403L22.144 23.3857L23.7302 21.9216L22.2504 20.2162L24.4439 20.7028L25.1036 18.5122Z" fill="#F6B800"></path><path fill-rule="evenodd" clip-rule="evenodd" d="M24.7047 29.9746L25.3645 32.1652L27.6118 31.6516L26.0781 33.357L27.5579 34.9546L25.3645 34.6013L24.7317 36.5521L24.045 34.6013L21.7451 34.8482L23.3327 33.384L21.8515 31.6786L24.045 32.1652L24.7047 29.9746Z" fill="#F6B800"></path><path fill-rule="evenodd" clip-rule="evenodd" d="M31.7477 7.0498L32.4074 9.2404L34.6548 8.72823L33.1211 10.4322L34.6009 12.0297L32.4074 11.6779L31.7746 13.6273L31.0879 11.6779L28.7881 11.9233L30.3743 10.4592L28.8945 8.75376L31.0879 9.2404L31.7477 7.0498Z" fill="#F6B800"></path><path fill-rule="evenodd" clip-rule="evenodd" d="M31.7036 18.5122L32.3633 20.7028L34.6093 20.1892L33.077 21.8946L34.5568 23.4922L32.3633 23.1403L31.7306 25.0897L31.0439 23.1403L28.744 23.3857L30.3302 21.9216L28.8504 20.2162L31.0439 20.7028L31.7036 18.5122Z" fill="#F6B800"></path><path fill-rule="evenodd" clip-rule="evenodd" d="M31.3049 29.9746L31.9647 32.1652L34.212 31.6516L32.6783 33.357L34.1581 34.9546L31.9647 34.6013L31.3319 36.5521L30.6452 34.6013L28.3453 34.8482L29.933 33.384L28.4532 31.6786L30.6452 32.1652L31.3049 29.9746Z" fill="#F6B800"></path><path fill-rule="evenodd" clip-rule="evenodd" d="M38.3479 7.0498L39.0076 9.2404L41.255 8.72823L39.7213 10.4322L41.2011 12.0297L39.0076 11.6779L38.3749 13.6273L37.6882 11.6779L35.3883 11.9233L36.9759 10.4592L35.4961 8.75376L37.6882 9.2404L38.3479 7.0498Z" fill="#F6B800"></path><path fill-rule="evenodd" clip-rule="evenodd" d="M38.3038 18.5122L38.9636 20.7028L41.2109 20.1892L39.6772 21.8946L41.157 23.4922L38.9636 23.1403L38.3308 25.0897L37.6441 23.1403L35.3442 23.3857L36.9304 21.9216L35.4506 20.2162L37.6441 20.7028L38.3038 18.5122Z" fill="#F6B800"></path><path fill-rule="evenodd" clip-rule="evenodd" d="M37.9066 29.9746L38.5664 32.1652L40.8123 31.6516L39.2786 33.357L40.7584 34.9546L38.5664 34.6013L37.9336 36.5521L37.2469 34.6013L34.947 34.8482L36.5332 33.384L35.0534 31.6786L37.2469 32.1652L37.9066 29.9746Z" fill="#F6B800"></path><path fill-rule="evenodd" clip-rule="evenodd" d="M0.176758 16.7246H21.0657V8.4502H0.176758V16.7246Z" fill="#F6B800"></path><path fill-rule="evenodd" clip-rule="evenodd" d="M0.479812 33.272H21.0659V24.9983H0.176758V30.405C0.176758 31.3624 0.282032 32.3212 0.479812 33.272Z" fill="#F6B800"></path><path fill-rule="evenodd" clip-rule="evenodd" d="M20.9366 49.8192H21.0654V41.5457H4.68677C8.63923 46.2343 14.7108 49.6303 20.9366 49.8192Z" fill="#F6B800"></path><path d="M25.078 7.02855H25.2169L25.857 9.15459L28.0374 8.6566L28.1074 8.77564L26.6183 10.4312L28.0535 11.9805L27.9889 12.1011L25.8569 11.7584L25.243 13.65L25.1058 13.6515L24.4384 11.7551L22.1953 11.9947L22.1385 11.8696L23.6738 10.4532L22.2398 8.80132L22.31 8.68327L24.4375 9.15517L25.078 7.02855ZM21.0693 50H21.0624C15.7131 49.8759 10.4681 47.3974 6.55212 43.7567C2.60206 40.0848 0 35.2267 0 30.4044V0H42.1315V30.4044C42.1315 35.2267 39.5295 40.0848 35.5794 43.7567C31.6634 47.3974 26.4184 49.8759 21.0693 50ZM0.353279 16.6062H20.948V8.56807H0.353279V16.6062ZM20.948 49.643V41.6627H5.01883C5.57201 42.3015 6.1645 42.9153 6.79217 43.4987C10.6191 47.0563 15.7306 49.4865 20.948 49.643ZM21.1835 0.35342V8.33255V8.56807V16.6062V16.8417V24.8799V25.1154V33.1536V33.3891V41.4272V41.6627V49.643C26.4011 49.4865 31.5125 47.0563 35.3394 43.4987C39.2212 39.89 41.7783 35.1251 41.7783 30.4044V0.35342H21.1835ZM0.63463 33.1536H20.948V25.1154H0.353279V30.4044C0.353279 31.322 0.450471 32.2414 0.63463 33.1536ZM0.353279 8.33255H20.948V0.35342H0.353279V8.33255ZM0.353279 24.8799H20.948V16.8417H0.353279V24.8799ZM4.81764 41.4272H20.948V33.3891H0.684141C1.30671 36.2353 2.77657 39.0042 4.81764 41.4272ZM25.1473 7.30052L24.557 9.26101L24.5375 9.32542L24.472 9.31081L22.4926 8.87183L23.8291 10.4114L23.875 10.4644L23.8235 10.5121L22.3974 11.8276L24.4798 11.6051L24.5367 11.599L24.5559 11.6532L25.1713 13.4017L25.7383 11.6546L25.7574 11.5958L25.8184 11.6056L27.8042 11.9251L26.467 10.4813L26.422 10.4329L26.4664 10.3836L27.847 8.84856L25.8233 9.31081L25.7571 9.32598L25.7377 9.26101L25.1473 7.30052ZM25.0337 18.4908H25.1726L25.8128 20.617L27.9933 20.119L28.0632 20.238L26.5741 21.8935L28.0092 23.4428L27.9446 23.5635L25.8126 23.2208L25.1987 25.1123L25.0615 25.1139L24.3943 23.2175L22.151 23.4571L22.0942 23.3319L23.6295 21.9153L22.1956 20.2636L22.2658 20.1457L24.3934 20.6176L25.0337 18.4908ZM25.1031 18.7628L24.5129 20.7234L24.4934 20.7878L24.4279 20.7732L22.4484 20.3342L23.7849 21.8736L23.8307 21.9267L23.7792 21.9742L22.3532 23.29L24.4357 23.0675L24.4926 23.0614L24.5117 23.1156L25.1271 24.8642L25.694 23.1171L25.7132 23.0582L25.7742 23.0681L27.7599 23.3873L26.4227 21.9436L26.3777 21.8952L26.4221 21.8458L27.8027 20.311L25.779 20.7732L25.7129 20.7884L25.6934 20.7234L25.1031 18.7628ZM24.6356 29.9531H24.7745L25.4148 32.0794L27.5955 31.5813L27.6653 31.7003L26.1762 33.3559L27.6112 34.9052L27.5467 35.0259L25.4146 34.6829L24.8006 36.5747L24.6635 36.5761L23.9961 34.6797L21.753 34.9195L21.6963 34.7943L23.2314 33.3777L21.7976 31.726L21.8678 31.6081L23.9953 32.0798L24.6356 29.9531ZM24.705 30.225L24.1148 32.1857L24.0953 32.2501L24.0298 32.2355L22.0504 31.7966L23.3868 33.336L23.4327 33.3891L23.3811 33.4367L21.9552 34.7523L24.0377 34.5298L24.0946 34.5237L24.1136 34.5779L24.7289 36.3264L25.296 34.5793L25.315 34.5204L25.3762 34.5302L27.3619 34.8497L26.0249 33.406L25.9799 33.3574L26.0243 33.3082L27.4049 31.7732L25.3807 32.2355L25.3149 32.2506L25.2955 32.1857L24.705 30.225ZM31.6785 7.02855H31.8174L32.4574 9.15459L34.6379 8.6566L34.7079 8.77564L33.219 10.4312L34.6539 11.9805L34.5892 12.1011L32.4572 11.7584L31.8435 13.65L31.7063 13.6515L31.0389 11.7551L28.7958 11.9947L28.7392 11.8696L30.2743 10.4532L28.8403 8.80132L28.9105 8.68327L31.0382 9.15517L31.6785 7.02855ZM31.7478 7.30052L31.1575 9.26101L31.138 9.32542L31.0725 9.31081L29.0931 8.87183L30.4296 10.4114L30.4756 10.4644L30.424 10.5121L28.9981 11.8276L31.0804 11.6051L31.1373 11.599L31.1563 11.6532L31.7718 13.4017L32.3388 11.6546L32.3578 11.5958L32.4189 11.6056L34.4047 11.9251L33.0676 10.4813L33.0226 10.4329L33.067 10.3836L34.4475 8.84856L32.4238 9.31081L32.3576 9.32598L32.3381 9.26101L31.7478 7.30052ZM31.6342 18.4908H31.7731L32.4133 20.617L34.5938 20.119L34.6637 20.238L33.1747 21.8935L34.6098 23.4428L34.5451 23.5635L32.4131 23.2208L31.7992 25.1123L31.662 25.1139L30.9946 23.2175L28.7515 23.4571L28.6947 23.3319L30.23 21.9153L28.7962 20.2636L28.8664 20.1457L30.9939 20.6176L31.6342 18.4908ZM31.7037 18.7628L31.1132 20.7234L31.0938 20.7878L31.0282 20.7732L29.049 20.3342L30.3854 21.8736L30.4313 21.9267L30.3797 21.9742L28.9538 23.29L31.0362 23.0675L31.0931 23.0614L31.1121 23.1156L31.7276 24.8642L32.2946 23.1171L32.3137 23.0582L32.3748 23.0681L34.3605 23.3873L33.0233 21.9436L32.9784 21.8952L33.0228 21.8458L34.4033 20.311L32.3796 20.7732L32.3135 20.7884L32.2939 20.7234L31.7037 18.7628ZM31.2362 29.9531H31.3751L32.0153 32.0794L34.196 31.5813L34.2656 31.7003L32.7766 33.3559L34.2117 34.9052L34.1472 35.0259L32.0151 34.6829L31.4012 36.5747L31.264 36.5761L30.5966 34.6797L28.3535 34.9195L28.2968 34.7943L29.8321 33.3777L28.3981 31.726L28.4683 31.6081L30.5959 32.0798L31.2362 29.9531ZM31.3056 30.225L30.7152 32.1857L30.6958 32.2501L30.6303 32.2355L28.6509 31.7966L29.9874 33.336L30.0334 33.3891L29.9817 33.4367L28.5558 34.7523L30.6382 34.5298L30.6951 34.5237L30.7141 34.5779L31.3296 36.3264L31.8965 34.5793L31.9157 34.5204L31.9767 34.5302L33.9626 34.8496L32.6252 33.406L32.5802 33.3574L32.6247 33.3082L34.0053 31.7732L31.9812 32.2355L31.9154 32.2506L31.896 32.1857L31.3056 30.225ZM38.279 7.02855H38.4179L39.058 9.15459L41.2384 8.6566L41.3085 8.77564L39.8195 10.4312L41.2544 11.9805L41.1899 12.1011L39.0579 11.7584L38.444 13.65L38.3069 13.6515L37.6394 11.7551L35.3963 11.9947L35.3395 11.8696L36.8748 10.4532L35.4408 8.80132L35.511 8.68327L37.6385 9.15517L38.279 7.02855ZM38.3485 7.30052L37.758 9.26101L37.7385 9.32542L37.673 9.31081L35.6936 8.87183L37.0301 10.4114L37.0761 10.4644L37.0245 10.5121L35.5986 11.8276L37.6809 11.6051L37.7378 11.599L37.7568 11.6532L38.3723 13.4017L38.9393 11.6546L38.9584 11.5958L39.0194 11.6056L41.0053 11.9251L39.6679 10.4813L39.6231 10.4329L39.6675 10.3836L41.048 8.84856L39.0242 9.31081L38.9581 9.32598L38.9387 9.26101L38.3485 7.30052ZM38.2347 18.4908H38.3736L39.0137 20.617L41.1943 20.119L41.2642 20.238L39.7751 21.8935L41.2102 23.4428L41.1456 23.5635L39.0136 23.2208L38.3997 25.1123L38.2626 25.1139L37.5952 23.2175L35.352 23.4571L35.2952 23.3319L36.8305 21.9153L35.3965 20.2636L35.4668 20.1457L37.5944 20.6176L38.2347 18.4908ZM38.3042 18.7628L37.7139 20.7234L37.6944 20.7878L37.6289 20.7732L35.6495 20.3342L36.9859 21.8736L37.0318 21.9267L36.9802 21.9742L35.5543 23.29L37.6368 23.0675L37.6936 23.0614L37.7127 23.1156L38.328 24.8642L38.895 23.1171L38.9141 23.0582L38.9752 23.0681L40.961 23.3873L39.6237 21.9436L39.5787 21.8952L39.6231 21.8458L41.0037 20.311L38.98 20.7732L38.9139 20.7884L38.8944 20.7234L38.3042 18.7628ZM37.8366 29.9531H37.9755L38.6158 32.0794L40.7966 31.5813L40.8663 31.7003L39.3772 33.3559L40.8122 34.9052L40.7476 35.0259L38.6156 34.6829L38.0017 36.5747L37.8645 36.5761L37.1971 34.6797L34.954 34.9195L34.8973 34.7943L36.4325 33.3777L34.9986 31.726L35.0688 31.6081L37.1963 32.0798L37.8366 29.9531ZM37.9061 30.225L37.3159 32.1857L37.2964 32.2501L37.2309 32.2355L35.2514 31.7966L36.5879 33.336L36.6337 33.3891L36.5822 33.4367L35.1563 34.7523L37.2387 34.5298L37.2956 34.5237L37.3147 34.5779L37.9301 36.3264L38.497 34.5793L38.5162 34.5204L38.5772 34.5302L40.5631 34.8497L39.2259 33.406L39.1809 33.3574L39.2253 33.3082L40.6059 31.7732L38.5817 32.2355L38.5159 32.2506L38.4965 32.1857L37.9061 30.225Z" fill="#1F1A17"></path></svg>