<svg xmlns="http://www.w3.org/2000/svg" width="225" height="50" viewBox="0 0 225 50" fill="none"><path d="M63.1956 31V19.376C63.7503 19.264 64.3209 19.176 64.9076 19.112C65.4996 19.048 66.1236 19.016 66.7796 19.016C68.5396 19.016 69.8623 19.36 70.7476 20.048C71.6383 20.7307 72.0836 21.8133 72.0836 23.296C72.0836 24.6933 71.6516 25.7547 70.7876 26.48C69.9289 27.2053 68.6463 27.568 66.9396 27.568C66.7369 27.568 66.5449 27.5653 66.3636 27.56C66.1823 27.5493 65.9929 27.536 65.7956 27.52V31H63.1956ZM66.9716 25.616C67.8623 25.616 68.5156 25.4373 68.9316 25.08C69.3476 24.7173 69.5556 24.128 69.5556 23.312C69.5556 22.4907 69.3476 21.896 68.9316 21.528C68.5209 21.1547 67.8836 20.968 67.0196 20.968C66.7796 20.968 66.5636 20.976 66.3716 20.992C66.1796 21.0027 65.9876 21.0267 65.7956 21.064V25.544C65.9929 25.5653 66.1823 25.584 66.3636 25.6C66.5449 25.6107 66.7476 25.616 66.9716 25.616ZM77.307 31.168C76.4323 31.168 75.675 31.0027 75.035 30.672C74.4003 30.336 73.9096 29.8347 73.563 29.168C73.2163 28.496 73.043 27.656 73.043 26.648C73.043 25.6293 73.211 24.784 73.547 24.112C73.8883 23.44 74.3763 22.9387 75.011 22.608C75.651 22.2773 76.4163 22.112 77.307 22.112C78.1976 22.112 78.9603 22.28 79.595 22.616C80.235 22.9467 80.723 23.448 81.059 24.12C81.4003 24.7867 81.571 25.624 81.571 26.632C81.571 27.6453 81.3976 28.488 81.051 29.16C80.7043 29.832 80.211 30.336 79.571 30.672C78.9363 31.0027 78.1816 31.168 77.307 31.168ZM77.307 29.232C77.6643 29.232 77.9683 29.1547 78.219 29C78.475 28.8453 78.6696 28.5813 78.803 28.208C78.9363 27.8293 79.003 27.312 79.003 26.656C79.003 25.984 78.9363 25.4587 78.803 25.08C78.6696 24.7013 78.475 24.4347 78.219 24.28C77.9683 24.12 77.6643 24.04 77.307 24.04C76.9496 24.04 76.643 24.1173 76.387 24.272C76.1363 24.4267 75.9443 24.6933 75.811 25.072C75.6776 25.4453 75.611 25.9627 75.611 26.624C75.611 27.296 75.6776 27.8213 75.811 28.2C75.9443 28.5787 76.1363 28.8453 76.387 29C76.643 29.1547 76.9496 29.232 77.307 29.232ZM84.6325 31L82.2725 22.248H84.6885L86.2565 28.52H86.1285L87.8245 22.248H90.6405L92.3045 28.52H92.1285L93.7525 22.248H96.0645L93.7285 31H90.9045L89.1205 24.4H89.2725L87.4485 31H84.6325ZM97.3648 31V22.248H99.9168V31H97.3648ZM98.6368 20.976C98.1035 20.976 97.7062 20.8587 97.4448 20.624C97.1888 20.3893 97.0608 20.064 97.0608 19.648C97.0608 19.2213 97.1888 18.8933 97.4448 18.664C97.7062 18.4293 98.1035 18.312 98.6368 18.312C99.1755 18.312 99.5728 18.4293 99.8288 18.664C100.085 18.8933 100.213 19.2213 100.213 19.648C100.213 20.064 100.085 20.3893 99.8288 20.624C99.5728 20.8587 99.1755 20.976 98.6368 20.976ZM104.21 31.16C103.314 31.16 102.615 30.928 102.114 30.464C101.618 29.9947 101.37 29.384 101.37 28.632C101.37 27.8053 101.655 27.16 102.226 26.696C102.802 26.232 103.73 25.9573 105.01 25.872L106.85 25.72L107.122 27.128L105.266 27.28C104.775 27.3173 104.421 27.4293 104.202 27.616C103.989 27.8027 103.882 28.0587 103.882 28.384C103.882 28.704 103.981 28.952 104.178 29.128C104.375 29.2987 104.663 29.384 105.042 29.384C105.277 29.384 105.517 29.344 105.762 29.264C106.007 29.1787 106.231 29.0347 106.434 28.832V25.632C106.434 25.232 106.367 24.9173 106.234 24.688C106.106 24.4587 105.895 24.296 105.602 24.2C105.314 24.0987 104.927 24.048 104.442 24.048C104.106 24.048 103.725 24.0773 103.298 24.136C102.871 24.1893 102.463 24.2773 102.074 24.4V22.48C102.501 22.3573 102.967 22.2667 103.474 22.208C103.986 22.144 104.461 22.112 104.898 22.112C105.826 22.112 106.586 22.2267 107.178 22.456C107.775 22.6853 108.215 23.0693 108.498 23.608C108.781 24.1413 108.922 24.8693 108.922 25.792V31H106.826L106.65 30.128H106.53C106.269 30.4853 105.935 30.7467 105.53 30.912C105.125 31.0773 104.685 31.16 104.21 31.16ZM114.651 31.16C113.595 31.16 112.782 30.8987 112.211 30.376C111.646 29.848 111.363 29.0133 111.363 27.872V22.248L111.827 19.16H113.907V27.472C113.907 28.0747 114.019 28.4907 114.243 28.72C114.473 28.9493 114.841 29.064 115.347 29.064C115.486 29.064 115.627 29.056 115.771 29.04C115.921 29.0187 116.086 28.992 116.267 28.96V30.976C116.038 31.024 115.779 31.0667 115.491 31.104C115.209 31.1413 114.929 31.16 114.651 31.16ZM109.939 24.256V22.248H116.211V24.256H109.939ZM121.649 31V19.16H124.257L129.865 27.776H129.417V19.16H131.865V31H129.249L123.649 22.384H124.097V31H121.649ZM137.744 31.168C136.87 31.168 136.112 31.0027 135.472 30.672C134.838 30.336 134.347 29.8347 134 29.168C133.654 28.496 133.48 27.656 133.48 26.648C133.48 25.6293 133.648 24.784 133.984 24.112C134.326 23.44 134.814 22.9387 135.448 22.608C136.088 22.2773 136.854 22.112 137.744 22.112C138.635 22.112 139.398 22.28 140.032 22.616C140.672 22.9467 141.16 23.448 141.496 24.12C141.838 24.7867 142.008 25.624 142.008 26.632C142.008 27.6453 141.835 28.488 141.488 29.16C141.142 29.832 140.648 30.336 140.008 30.672C139.374 31.0027 138.619 31.168 137.744 31.168ZM137.744 29.232C138.102 29.232 138.406 29.1547 138.656 29C138.912 28.8453 139.107 28.5813 139.24 28.208C139.374 27.8293 139.44 27.312 139.44 26.656C139.44 25.984 139.374 25.4587 139.24 25.08C139.107 24.7013 138.912 24.4347 138.656 24.28C138.406 24.12 138.102 24.04 137.744 24.04C137.387 24.04 137.08 24.1173 136.824 24.272C136.574 24.4267 136.382 24.6933 136.248 25.072C136.115 25.4453 136.048 25.9627 136.048 26.624C136.048 27.296 136.115 27.8213 136.248 28.2C136.382 28.5787 136.574 28.8453 136.824 29C137.08 29.1547 137.387 29.232 137.744 29.232ZM145.07 31L142.71 22.248H145.126L146.694 28.52H146.566L148.262 22.248H151.078L152.742 28.52H152.566L154.19 22.248H156.502L154.166 31H151.342L149.558 24.4H149.71L147.886 31H145.07ZM161.526 31.168C160.651 31.168 159.894 31.0027 159.254 30.672C158.619 30.336 158.128 29.8347 157.782 29.168C157.435 28.496 157.262 27.656 157.262 26.648C157.262 25.6293 157.43 24.784 157.766 24.112C158.107 23.44 158.595 22.9387 159.23 22.608C159.87 22.2773 160.635 22.112 161.526 22.112C162.416 22.112 163.179 22.28 163.814 22.616C164.454 22.9467 164.942 23.448 165.278 24.12C165.619 24.7867 165.79 25.624 165.79 26.632C165.79 27.6453 165.616 28.488 165.27 29.16C164.923 29.832 164.43 30.336 163.79 30.672C163.155 31.0027 162.4 31.168 161.526 31.168ZM161.526 29.232C161.883 29.232 162.187 29.1547 162.438 29C162.694 28.8453 162.888 28.5813 163.022 28.208C163.155 27.8293 163.222 27.312 163.222 26.656C163.222 25.984 163.155 25.4587 163.022 25.08C162.888 24.7013 162.694 24.4347 162.438 24.28C162.187 24.12 161.883 24.04 161.526 24.04C161.168 24.04 160.862 24.1173 160.606 24.272C160.355 24.4267 160.163 24.6933 160.03 25.072C159.896 25.4453 159.83 25.9627 159.83 26.624C159.83 27.296 159.896 27.8213 160.03 28.2C160.163 28.5787 160.355 28.8453 160.606 29C160.862 29.1547 161.168 29.232 161.526 29.232ZM169.855 31.168C169.353 31.168 168.865 31.136 168.391 31.072C167.921 31.008 167.479 30.912 167.063 30.784V28.912C167.484 29.04 167.929 29.1387 168.399 29.208C168.868 29.272 169.343 29.304 169.823 29.304C170.399 29.304 170.804 29.2293 171.039 29.08C171.279 28.9253 171.399 28.712 171.399 28.44C171.399 28.2213 171.34 28.056 171.223 27.944C171.105 27.832 170.9 27.7467 170.607 27.688L169.183 27.432C168.361 27.2773 167.764 26.992 167.391 26.576C167.017 26.16 166.831 25.6027 166.831 24.904C166.831 24.0667 167.167 23.392 167.839 22.88C168.516 22.368 169.553 22.112 170.951 22.112C171.377 22.112 171.791 22.136 172.191 22.184C172.596 22.232 172.961 22.2987 173.287 22.384V24.256C172.945 24.16 172.583 24.088 172.199 24.04C171.815 23.992 171.423 23.968 171.023 23.968C170.537 23.968 170.164 24.0107 169.903 24.096C169.641 24.176 169.457 24.2827 169.351 24.416C169.249 24.5493 169.199 24.6933 169.199 24.848C169.199 25.0347 169.257 25.1867 169.375 25.304C169.492 25.4213 169.695 25.512 169.983 25.576L171.407 25.832C172.185 25.976 172.772 26.2427 173.167 26.632C173.567 27.016 173.767 27.5893 173.767 28.352C173.767 29.2213 173.425 29.9093 172.743 30.416C172.065 30.9173 171.103 31.168 169.855 31.168ZM177.507 31.16C176.611 31.16 175.912 30.928 175.411 30.464C174.915 29.9947 174.667 29.384 174.667 28.632C174.667 27.8053 174.952 27.16 175.523 26.696C176.099 26.232 177.027 25.9573 178.307 25.872L180.147 25.72L180.419 27.128L178.563 27.28C178.072 27.3173 177.718 27.4293 177.499 27.616C177.286 27.8027 177.179 28.0587 177.179 28.384C177.179 28.704 177.278 28.952 177.475 29.128C177.672 29.2987 177.96 29.384 178.339 29.384C178.574 29.384 178.814 29.344 179.059 29.264C179.304 29.1787 179.528 29.0347 179.731 28.832V25.632C179.731 25.232 179.664 24.9173 179.531 24.688C179.403 24.4587 179.192 24.296 178.899 24.2C178.611 24.0987 178.224 24.048 177.739 24.048C177.403 24.048 177.022 24.0773 176.595 24.136C176.168 24.1893 175.76 24.2773 175.371 24.4V22.48C175.798 22.3573 176.264 22.2667 176.771 22.208C177.283 22.144 177.758 22.112 178.195 22.112C179.123 22.112 179.883 22.2267 180.475 22.456C181.072 22.6853 181.512 23.0693 181.795 23.608C182.078 24.1413 182.219 24.8693 182.219 25.792V31L180.259 31.112L179.947 30.128H179.827C179.566 30.4853 179.232 30.7467 178.827 30.912C178.422 31.0773 177.982 31.16 177.507 31.16ZM181.163 34.536C180.475 34.536 179.955 34.3867 179.603 34.088C179.251 33.7893 179.075 33.3867 179.075 32.88C179.075 32.5493 179.15 32.2373 179.299 31.944C179.454 31.6507 179.71 31.3787 180.067 31.128C180.424 30.8773 180.912 30.6427 181.531 30.424L182.219 31C181.782 31.1867 181.44 31.3707 181.195 31.552C180.955 31.7333 180.784 31.92 180.683 32.112C180.582 32.304 180.531 32.504 180.531 32.712C180.531 32.9573 180.614 33.152 180.779 33.296C180.944 33.44 181.187 33.512 181.507 33.512C181.656 33.512 181.816 33.4907 181.987 33.448C182.163 33.4107 182.344 33.3493 182.531 33.264V34.272C182.344 34.3467 182.139 34.408 181.915 34.456C181.696 34.5093 181.446 34.536 181.163 34.536ZM187.244 31.152C186.599 31.152 186.002 31.0053 185.452 30.712C184.908 30.4187 184.471 29.952 184.14 29.312C183.815 28.672 183.652 27.8373 183.652 26.808C183.652 25.7893 183.834 24.9307 184.196 24.232C184.559 23.5333 185.092 23.0053 185.796 22.648C186.506 22.2853 187.383 22.104 188.428 22.104C188.604 22.104 188.778 22.112 188.948 22.128C189.124 22.1387 189.287 22.152 189.436 22.168V18.072H191.988V31H189.844L189.692 30.08H189.572C189.322 30.4 188.999 30.6587 188.604 30.856C188.215 31.0533 187.762 31.152 187.244 31.152ZM187.996 29.072C188.258 29.072 188.516 29.024 188.772 28.928C189.034 28.832 189.255 28.6827 189.436 28.48V24.144C189.298 24.112 189.138 24.088 188.956 24.072C188.775 24.0507 188.596 24.04 188.42 24.04C187.69 24.04 187.14 24.2373 186.772 24.632C186.404 25.0213 186.22 25.68 186.22 26.608C186.22 27.2427 186.295 27.7387 186.444 28.096C186.594 28.4533 186.799 28.7067 187.06 28.856C187.327 29 187.639 29.072 187.996 29.072ZM198.304 31.168C197.205 31.168 196.301 31.0107 195.592 30.696C194.883 30.3813 194.355 29.888 194.008 29.216C193.667 28.544 193.496 27.6773 193.496 26.616C193.496 25.6507 193.653 24.832 193.968 24.16C194.288 23.488 194.749 22.9787 195.352 22.632C195.96 22.2853 196.696 22.112 197.56 22.112C198.387 22.112 199.083 22.288 199.648 22.64C200.213 22.9867 200.64 23.5013 200.928 24.184C201.216 24.8667 201.36 25.704 201.36 26.696V27.36H194.952V25.896H199.392L198.984 26.048C198.984 25.472 198.931 25.0133 198.824 24.672C198.717 24.3307 198.555 24.088 198.336 23.944C198.123 23.8 197.856 23.728 197.536 23.728C197.211 23.728 196.936 23.8 196.712 23.944C196.493 24.088 196.325 24.3307 196.208 24.672C196.096 25.008 196.04 25.464 196.04 26.04V27.064C196.04 27.6027 196.117 28.032 196.272 28.352C196.432 28.6667 196.701 28.8933 197.08 29.032C197.464 29.1707 197.992 29.24 198.664 29.24C199.005 29.24 199.363 29.216 199.736 29.168C200.115 29.1147 200.493 29.0453 200.872 28.96V30.872C200.408 30.9787 199.965 31.0533 199.544 31.096C199.128 31.144 198.715 31.168 198.304 31.168ZM206.915 31.168C205.939 31.168 205.112 31.0027 204.435 30.672C203.763 30.3413 203.251 29.8427 202.899 29.176C202.547 28.504 202.371 27.6587 202.371 26.64C202.371 25.6107 202.558 24.7627 202.931 24.096C203.31 23.424 203.856 22.9253 204.571 22.6C205.291 22.2747 206.16 22.112 207.179 22.112C207.531 22.112 207.87 22.128 208.195 22.16C208.526 22.192 208.838 22.2427 209.131 22.312V24.328C208.854 24.2747 208.584 24.2347 208.323 24.208C208.062 24.1813 207.798 24.168 207.531 24.168C206.944 24.168 206.464 24.2507 206.091 24.416C205.718 24.5813 205.443 24.8453 205.267 25.208C205.091 25.5653 205.003 26.0347 205.003 26.616C205.003 27.2187 205.088 27.704 205.259 28.072C205.435 28.4347 205.694 28.6987 206.035 28.864C206.376 29.0293 206.803 29.112 207.315 29.112C207.592 29.112 207.872 29.088 208.155 29.04C208.438 28.992 208.763 28.9173 209.131 28.816V30.832C208.811 30.9387 208.462 31.0213 208.083 31.08C207.704 31.1387 207.315 31.168 206.915 31.168ZM216.567 31L213.471 26.504L216.343 22.248H219.063L216.055 26.792V26.12L219.343 31H216.567ZM212.927 27.528V25.488H214.375V27.528H212.927ZM210.599 31V18.072H213.143V31H210.599ZM220.037 31V22.248H222.589V31H220.037ZM221.309 20.976C220.775 20.976 220.378 20.8587 220.117 20.624C219.861 20.3893 219.733 20.064 219.733 19.648C219.733 19.2213 219.861 18.8933 220.117 18.664C220.378 18.4293 220.775 18.312 221.309 18.312C221.847 18.312 222.245 18.4293 222.501 18.664C222.757 18.8933 222.885 19.2213 222.885 19.648C222.885 20.064 222.757 20.3893 222.501 20.624C222.245 20.8587 221.847 20.976 221.309 20.976Z" fill="#465867"></path><path fill-rule="evenodd" clip-rule="evenodd" d="M21.0656 49.822C10.4162 49.5748 0.176514 39.9101 0.176514 30.403V0.175293H21.0656H41.9548V30.403C41.9548 39.9101 31.7151 49.5748 21.0656 49.822Z" stroke="#383431" stroke-width="0.3"></path><path fill-rule="evenodd" clip-rule="evenodd" d="M21.0656 49.8235C10.4162 49.5763 0.176514 39.9115 0.176514 30.4045V0.176758H21.0656H41.9548V30.4045C41.9548 39.9115 31.7151 49.5763 21.0656 49.8235Z" fill="#CF261D"></path><path fill-rule="evenodd" clip-rule="evenodd" d="M25.1476 7.0498L25.8073 9.2404L28.0533 8.72823L26.521 10.4322L28.0008 12.0297L25.8073 11.6779L25.1745 13.6273L24.4878 11.6779L22.188 11.9233L23.7742 10.4592L22.2944 8.75376L24.4878 9.2404L25.1476 7.0498Z" fill="#F6B800"></path><path fill-rule="evenodd" clip-rule="evenodd" d="M25.1036 18.5122L25.7634 20.7028L28.0093 20.1892L26.4756 21.8946L27.9568 23.4922L25.7634 23.1403L25.1306 25.0897L24.4439 23.1403L22.144 23.3857L23.7302 21.9216L22.2504 20.2162L24.4439 20.7028L25.1036 18.5122Z" fill="#F6B800"></path><path fill-rule="evenodd" clip-rule="evenodd" d="M24.7047 29.9746L25.3645 32.1652L27.6118 31.6516L26.0781 33.357L27.5579 34.9546L25.3645 34.6013L24.7317 36.5521L24.045 34.6013L21.7451 34.8482L23.3327 33.384L21.8515 31.6786L24.045 32.1652L24.7047 29.9746Z" fill="#F6B800"></path><path fill-rule="evenodd" clip-rule="evenodd" d="M31.7477 7.0498L32.4074 9.2404L34.6548 8.72823L33.1211 10.4322L34.6009 12.0297L32.4074 11.6779L31.7746 13.6273L31.0879 11.6779L28.7881 11.9233L30.3743 10.4592L28.8945 8.75376L31.0879 9.2404L31.7477 7.0498Z" fill="#F6B800"></path><path fill-rule="evenodd" clip-rule="evenodd" d="M31.7036 18.5122L32.3633 20.7028L34.6093 20.1892L33.077 21.8946L34.5568 23.4922L32.3633 23.1403L31.7306 25.0897L31.0439 23.1403L28.744 23.3857L30.3302 21.9216L28.8504 20.2162L31.0439 20.7028L31.7036 18.5122Z" fill="#F6B800"></path><path fill-rule="evenodd" clip-rule="evenodd" d="M31.3049 29.9746L31.9647 32.1652L34.212 31.6516L32.6783 33.357L34.1581 34.9546L31.9647 34.6013L31.3319 36.5521L30.6452 34.6013L28.3453 34.8482L29.933 33.384L28.4532 31.6786L30.6452 32.1652L31.3049 29.9746Z" fill="#F6B800"></path><path fill-rule="evenodd" clip-rule="evenodd" d="M38.3479 7.0498L39.0076 9.2404L41.255 8.72823L39.7213 10.4322L41.2011 12.0297L39.0076 11.6779L38.3749 13.6273L37.6882 11.6779L35.3883 11.9233L36.9759 10.4592L35.4961 8.75376L37.6882 9.2404L38.3479 7.0498Z" fill="#F6B800"></path><path fill-rule="evenodd" clip-rule="evenodd" d="M38.3038 18.5122L38.9636 20.7028L41.2109 20.1892L39.6772 21.8946L41.157 23.4922L38.9636 23.1403L38.3308 25.0897L37.6441 23.1403L35.3442 23.3857L36.9304 21.9216L35.4506 20.2162L37.6441 20.7028L38.3038 18.5122Z" fill="#F6B800"></path><path fill-rule="evenodd" clip-rule="evenodd" d="M37.9066 29.9746L38.5664 32.1652L40.8123 31.6516L39.2786 33.357L40.7584 34.9546L38.5664 34.6013L37.9336 36.5521L37.2469 34.6013L34.947 34.8482L36.5332 33.384L35.0534 31.6786L37.2469 32.1652L37.9066 29.9746Z" fill="#F6B800"></path><path fill-rule="evenodd" clip-rule="evenodd" d="M0.176758 16.7246H21.0657V8.4502H0.176758V16.7246Z" fill="#F6B800"></path><path fill-rule="evenodd" clip-rule="evenodd" d="M0.479812 33.272H21.0659V24.9983H0.176758V30.405C0.176758 31.3624 0.282032 32.3212 0.479812 33.272Z" fill="#F6B800"></path><path fill-rule="evenodd" clip-rule="evenodd" d="M20.9366 49.8192H21.0654V41.5457H4.68677C8.63923 46.2343 14.7108 49.6303 20.9366 49.8192Z" fill="#F6B800"></path><path d="M25.078 7.02855H25.2169L25.857 9.15459L28.0374 8.6566L28.1074 8.77564L26.6183 10.4312L28.0535 11.9805L27.9889 12.1011L25.8569 11.7584L25.243 13.65L25.1058 13.6515L24.4384 11.7551L22.1953 11.9947L22.1385 11.8696L23.6738 10.4532L22.2398 8.80132L22.31 8.68327L24.4375 9.15517L25.078 7.02855ZM21.0693 50H21.0624C15.7131 49.8759 10.4681 47.3974 6.55212 43.7567C2.60206 40.0848 0 35.2267 0 30.4044V0H42.1315V30.4044C42.1315 35.2267 39.5295 40.0848 35.5794 43.7567C31.6634 47.3974 26.4184 49.8759 21.0693 50ZM0.353279 16.6062H20.948V8.56807H0.353279V16.6062ZM20.948 49.643V41.6627H5.01883C5.57201 42.3015 6.1645 42.9153 6.79217 43.4987C10.6191 47.0563 15.7306 49.4865 20.948 49.643ZM21.1835 0.35342V8.33255V8.56807V16.6062V16.8417V24.8799V25.1154V33.1536V33.3891V41.4272V41.6627V49.643C26.4011 49.4865 31.5125 47.0563 35.3394 43.4987C39.2212 39.89 41.7783 35.1251 41.7783 30.4044V0.35342H21.1835ZM0.63463 33.1536H20.948V25.1154H0.353279V30.4044C0.353279 31.322 0.450471 32.2414 0.63463 33.1536ZM0.353279 8.33255H20.948V0.35342H0.353279V8.33255ZM0.353279 24.8799H20.948V16.8417H0.353279V24.8799ZM4.81764 41.4272H20.948V33.3891H0.684141C1.30671 36.2353 2.77657 39.0042 4.81764 41.4272ZM25.1473 7.30052L24.557 9.26101L24.5375 9.32542L24.472 9.31081L22.4926 8.87183L23.8291 10.4114L23.875 10.4644L23.8235 10.5121L22.3974 11.8276L24.4798 11.6051L24.5367 11.599L24.5559 11.6532L25.1713 13.4017L25.7383 11.6546L25.7574 11.5958L25.8184 11.6056L27.8042 11.9251L26.467 10.4813L26.422 10.4329L26.4664 10.3836L27.847 8.84856L25.8233 9.31081L25.7571 9.32598L25.7377 9.26101L25.1473 7.30052ZM25.0337 18.4908H25.1726L25.8128 20.617L27.9933 20.119L28.0632 20.238L26.5741 21.8935L28.0092 23.4428L27.9446 23.5635L25.8126 23.2208L25.1987 25.1123L25.0615 25.1139L24.3943 23.2175L22.151 23.4571L22.0942 23.3319L23.6295 21.9153L22.1956 20.2636L22.2658 20.1457L24.3934 20.6176L25.0337 18.4908ZM25.1031 18.7628L24.5129 20.7234L24.4934 20.7878L24.4279 20.7732L22.4484 20.3342L23.7849 21.8736L23.8307 21.9267L23.7792 21.9742L22.3532 23.29L24.4357 23.0675L24.4926 23.0614L24.5117 23.1156L25.1271 24.8642L25.694 23.1171L25.7132 23.0582L25.7742 23.0681L27.7599 23.3873L26.4227 21.9436L26.3777 21.8952L26.4221 21.8458L27.8027 20.311L25.779 20.7732L25.7129 20.7884L25.6934 20.7234L25.1031 18.7628ZM24.6356 29.9531H24.7745L25.4148 32.0794L27.5955 31.5813L27.6653 31.7003L26.1762 33.3559L27.6112 34.9052L27.5467 35.0259L25.4146 34.6829L24.8006 36.5747L24.6635 36.5761L23.9961 34.6797L21.753 34.9195L21.6963 34.7943L23.2314 33.3777L21.7976 31.726L21.8678 31.6081L23.9953 32.0798L24.6356 29.9531ZM24.705 30.225L24.1148 32.1857L24.0953 32.2501L24.0298 32.2355L22.0504 31.7966L23.3868 33.336L23.4327 33.3891L23.3811 33.4367L21.9552 34.7523L24.0377 34.5298L24.0946 34.5237L24.1136 34.5779L24.7289 36.3264L25.296 34.5793L25.315 34.5204L25.3762 34.5302L27.3619 34.8497L26.0249 33.406L25.9799 33.3574L26.0243 33.3082L27.4049 31.7732L25.3807 32.2355L25.3149 32.2506L25.2955 32.1857L24.705 30.225ZM31.6785 7.02855H31.8174L32.4574 9.15459L34.6379 8.6566L34.7079 8.77564L33.219 10.4312L34.6539 11.9805L34.5892 12.1011L32.4572 11.7584L31.8435 13.65L31.7063 13.6515L31.0389 11.7551L28.7958 11.9947L28.7392 11.8696L30.2743 10.4532L28.8403 8.80132L28.9105 8.68327L31.0382 9.15517L31.6785 7.02855ZM31.7478 7.30052L31.1575 9.26101L31.138 9.32542L31.0725 9.31081L29.0931 8.87183L30.4296 10.4114L30.4756 10.4644L30.424 10.5121L28.9981 11.8276L31.0804 11.6051L31.1373 11.599L31.1563 11.6532L31.7718 13.4017L32.3388 11.6546L32.3578 11.5958L32.4189 11.6056L34.4047 11.9251L33.0676 10.4813L33.0226 10.4329L33.067 10.3836L34.4475 8.84856L32.4238 9.31081L32.3576 9.32598L32.3381 9.26101L31.7478 7.30052ZM31.6342 18.4908H31.7731L32.4133 20.617L34.5938 20.119L34.6637 20.238L33.1747 21.8935L34.6098 23.4428L34.5451 23.5635L32.4131 23.2208L31.7992 25.1123L31.662 25.1139L30.9946 23.2175L28.7515 23.4571L28.6947 23.3319L30.23 21.9153L28.7962 20.2636L28.8664 20.1457L30.9939 20.6176L31.6342 18.4908ZM31.7037 18.7628L31.1132 20.7234L31.0938 20.7878L31.0282 20.7732L29.049 20.3342L30.3854 21.8736L30.4313 21.9267L30.3797 21.9742L28.9538 23.29L31.0362 23.0675L31.0931 23.0614L31.1121 23.1156L31.7276 24.8642L32.2946 23.1171L32.3137 23.0582L32.3748 23.0681L34.3605 23.3873L33.0233 21.9436L32.9784 21.8952L33.0228 21.8458L34.4033 20.311L32.3796 20.7732L32.3135 20.7884L32.2939 20.7234L31.7037 18.7628ZM31.2362 29.9531H31.3751L32.0153 32.0794L34.196 31.5813L34.2656 31.7003L32.7766 33.3559L34.2117 34.9052L34.1472 35.0259L32.0151 34.6829L31.4012 36.5747L31.264 36.5761L30.5966 34.6797L28.3535 34.9195L28.2968 34.7943L29.8321 33.3777L28.3981 31.726L28.4683 31.6081L30.5959 32.0798L31.2362 29.9531ZM31.3056 30.225L30.7152 32.1857L30.6958 32.2501L30.6303 32.2355L28.6509 31.7966L29.9874 33.336L30.0334 33.3891L29.9817 33.4367L28.5558 34.7523L30.6382 34.5298L30.6951 34.5237L30.7141 34.5779L31.3296 36.3264L31.8965 34.5793L31.9157 34.5204L31.9767 34.5302L33.9626 34.8496L32.6252 33.406L32.5802 33.3574L32.6247 33.3082L34.0053 31.7732L31.9812 32.2355L31.9154 32.2506L31.896 32.1857L31.3056 30.225ZM38.279 7.02855H38.4179L39.058 9.15459L41.2384 8.6566L41.3085 8.77564L39.8195 10.4312L41.2544 11.9805L41.1899 12.1011L39.0579 11.7584L38.444 13.65L38.3069 13.6515L37.6394 11.7551L35.3963 11.9947L35.3395 11.8696L36.8748 10.4532L35.4408 8.80132L35.511 8.68327L37.6385 9.15517L38.279 7.02855ZM38.3485 7.30052L37.758 9.26101L37.7385 9.32542L37.673 9.31081L35.6936 8.87183L37.0301 10.4114L37.0761 10.4644L37.0245 10.5121L35.5986 11.8276L37.6809 11.6051L37.7378 11.599L37.7568 11.6532L38.3723 13.4017L38.9393 11.6546L38.9584 11.5958L39.0194 11.6056L41.0053 11.9251L39.6679 10.4813L39.6231 10.4329L39.6675 10.3836L41.048 8.84856L39.0242 9.31081L38.9581 9.32598L38.9387 9.26101L38.3485 7.30052ZM38.2347 18.4908H38.3736L39.0137 20.617L41.1943 20.119L41.2642 20.238L39.7751 21.8935L41.2102 23.4428L41.1456 23.5635L39.0136 23.2208L38.3997 25.1123L38.2626 25.1139L37.5952 23.2175L35.352 23.4571L35.2952 23.3319L36.8305 21.9153L35.3965 20.2636L35.4668 20.1457L37.5944 20.6176L38.2347 18.4908ZM38.3042 18.7628L37.7139 20.7234L37.6944 20.7878L37.6289 20.7732L35.6495 20.3342L36.9859 21.8736L37.0318 21.9267L36.9802 21.9742L35.5543 23.29L37.6368 23.0675L37.6936 23.0614L37.7127 23.1156L38.328 24.8642L38.895 23.1171L38.9141 23.0582L38.9752 23.0681L40.961 23.3873L39.6237 21.9436L39.5787 21.8952L39.6231 21.8458L41.0037 20.311L38.98 20.7732L38.9139 20.7884L38.8944 20.7234L38.3042 18.7628ZM37.8366 29.9531H37.9755L38.6158 32.0794L40.7966 31.5813L40.8663 31.7003L39.3772 33.3559L40.8122 34.9052L40.7476 35.0259L38.6156 34.6829L38.0017 36.5747L37.8645 36.5761L37.1971 34.6797L34.954 34.9195L34.8973 34.7943L36.4325 33.3777L34.9986 31.726L35.0688 31.6081L37.1963 32.0798L37.8366 29.9531ZM37.9061 30.225L37.3159 32.1857L37.2964 32.2501L37.2309 32.2355L35.2514 31.7966L36.5879 33.336L36.6337 33.3891L36.5822 33.4367L35.1563 34.7523L37.2387 34.5298L37.2956 34.5237L37.3147 34.5779L37.9301 36.3264L38.497 34.5793L38.5162 34.5204L38.5772 34.5302L40.5631 34.8497L39.2259 33.406L39.1809 33.3574L39.2253 33.3082L40.6059 31.7732L38.5817 32.2355L38.5159 32.2506L38.4965 32.1857L37.9061 30.225Z" fill="#1F1A17"></path></svg>